<mxfile host="app.diagrams.net" modified="2023-07-03T17:27:54.192Z" agent="Mozilla/5.0 (Windows NT 10.0; Win64; x64) AppleWebKit/537.36 (KHTML, like Gecko) Chrome/114.0.0.0 Safari/537.36" etag="BaGFgB0TpxCjpcFDZ5ph" version="21.5.2" type="github" pages="3">
  <diagram id="d3QQPoq8rLvSSF91qQDx" name="diagrama">
    <mxGraphModel dx="3695" dy="1576" grid="1" gridSize="10" guides="1" tooltips="1" connect="1" arrows="1" fold="1" page="1" pageScale="1" pageWidth="827" pageHeight="1169" math="0" shadow="0">
      <root>
        <mxCell id="0" />
        <mxCell id="1" parent="0" />
        <mxCell id="X6piOqQepDoEUoRMNW9H-4" style="edgeStyle=orthogonalEdgeStyle;rounded=0;orthogonalLoop=1;jettySize=auto;html=1;entryX=1;entryY=0.75;entryDx=0;entryDy=0;fillColor=#e6d0de;strokeColor=#996185;strokeWidth=3;gradientColor=#d5739d;fontSize=14;" edge="1" parent="1" source="WEIgwf60Te2D53e0nA5A-42" target="PVb6LjIy3GLqianQb5Y7-55">
          <mxGeometry relative="1" as="geometry">
            <Array as="points">
              <mxPoint x="2225" y="920" />
              <mxPoint x="1610" y="920" />
              <mxPoint x="1610" y="910" />
              <mxPoint x="1210" y="910" />
              <mxPoint x="1210" y="1090" />
            </Array>
          </mxGeometry>
        </mxCell>
        <mxCell id="PVb6LjIy3GLqianQb5Y7-15" style="edgeStyle=orthogonalEdgeStyle;rounded=0;orthogonalLoop=1;jettySize=auto;html=1;entryX=0;entryY=0.5;entryDx=0;entryDy=0;strokeWidth=3;fontSize=14;" parent="1" source="ORIvwSizXhw8nShr5_tj-1" target="ORIvwSizXhw8nShr5_tj-11" edge="1">
          <mxGeometry relative="1" as="geometry" />
        </mxCell>
        <mxCell id="PVb6LjIy3GLqianQb5Y7-16" style="edgeStyle=orthogonalEdgeStyle;rounded=0;orthogonalLoop=1;jettySize=auto;html=1;entryX=0;entryY=0.5;entryDx=0;entryDy=0;strokeWidth=3;fontSize=14;" parent="1" source="ORIvwSizXhw8nShr5_tj-1" target="ORIvwSizXhw8nShr5_tj-3" edge="1">
          <mxGeometry relative="1" as="geometry" />
        </mxCell>
        <mxCell id="ORIvwSizXhw8nShr5_tj-1" value="Processo 1" style="swimlane;whiteSpace=wrap;html=1;fontSize=14;" parent="1" vertex="1">
          <mxGeometry x="-730" y="155" width="200" height="200" as="geometry" />
        </mxCell>
        <mxCell id="ORIvwSizXhw8nShr5_tj-2" value="&lt;b style=&quot;font-size: 14px;&quot;&gt;Recebe:&lt;br style=&quot;font-size: 14px;&quot;&gt;&lt;/b&gt;KML, data&lt;br style=&quot;font-size: 14px;&quot;&gt;&lt;br style=&quot;font-size: 14px;&quot;&gt;&lt;b style=&quot;font-size: 14px;&quot;&gt;Retorna:&lt;br style=&quot;font-size: 14px;&quot;&gt;&lt;/b&gt;requisicao GEE&lt;br style=&quot;font-size: 14px;&quot;&gt;requisicao Weather" style="text;html=1;align=left;verticalAlign=middle;resizable=0;points=[];autosize=1;strokeColor=none;fillColor=none;fontSize=14;" parent="ORIvwSizXhw8nShr5_tj-1" vertex="1">
          <mxGeometry y="25" width="140" height="110" as="geometry" />
        </mxCell>
        <mxCell id="ORIvwSizXhw8nShr5_tj-3" value="API GEE" style="swimlane;whiteSpace=wrap;html=1;fontSize=14;" parent="1" vertex="1">
          <mxGeometry x="-434" y="60" width="277" height="200" as="geometry" />
        </mxCell>
        <mxCell id="ORIvwSizXhw8nShr5_tj-4" value="Recebe:&lt;br style=&quot;font-size: 14px;&quot;&gt;requisição (&lt;br style=&quot;font-size: 14px;&quot;&gt;&lt;span style=&quot;white-space: pre; font-size: 14px;&quot;&gt;&#x9;&lt;/span&gt;&lt;span style=&quot;white-space: pre; font-size: 14px;&quot;&gt;&#x9;&lt;/span&gt;janela de tempo (t), &lt;br style=&quot;font-size: 14px;&quot;&gt;&lt;span style=&quot;white-space: pre; font-size: 14px;&quot;&gt;&#x9;&lt;/span&gt;&lt;span style=&quot;white-space: pre; font-size: 14px;&quot;&gt;&#x9;&lt;/span&gt;coordenadas)&lt;br style=&quot;font-size: 14px;&quot;&gt;&lt;br style=&quot;font-size: 14px;&quot;&gt;Retorna:&lt;br style=&quot;font-size: 14px;&quot;&gt;Conjunto de Imagens na Janela (t)&lt;br style=&quot;font-size: 14px;&quot;&gt;(Azul, Verde, Vermelho e Infravermelho" style="text;html=1;align=left;verticalAlign=middle;resizable=0;points=[];autosize=1;strokeColor=none;fillColor=none;fontSize=14;" parent="ORIvwSizXhw8nShr5_tj-3" vertex="1">
          <mxGeometry x="7" y="23" width="270" height="150" as="geometry" />
        </mxCell>
        <mxCell id="WEIgwf60Te2D53e0nA5A-20" style="edgeStyle=orthogonalEdgeStyle;rounded=0;orthogonalLoop=1;jettySize=auto;html=1;entryX=0.25;entryY=0;entryDx=0;entryDy=0;fillColor=#60a917;strokeColor=#2D7600;strokeWidth=3;fontSize=14;" edge="1" parent="1" source="ORIvwSizXhw8nShr5_tj-5" target="ORIvwSizXhw8nShr5_tj-21">
          <mxGeometry relative="1" as="geometry" />
        </mxCell>
        <mxCell id="ORIvwSizXhw8nShr5_tj-5" value="Processo 2" style="swimlane;whiteSpace=wrap;html=1;fontSize=14;" parent="1" vertex="1">
          <mxGeometry x="1" y="30" width="200" height="230" as="geometry" />
        </mxCell>
        <mxCell id="ORIvwSizXhw8nShr5_tj-6" value="Recebe:&lt;br style=&quot;font-size: 14px;&quot;&gt;Conjunto de Imagens&lt;br style=&quot;font-size: 14px;&quot;&gt;&lt;br style=&quot;font-size: 14px;&quot;&gt;Retorna:&lt;br style=&quot;font-size: 14px;&quot;&gt;Imagem RGB (data 0)&lt;br style=&quot;font-size: 14px;&quot;&gt;Imagem RBNir (data 0)&lt;br style=&quot;font-size: 14px;&quot;&gt;Histórico NDVI&lt;br style=&quot;font-size: 14px;&quot;&gt;Histórico EVI&lt;br style=&quot;font-size: 14px;&quot;&gt;&lt;br style=&quot;font-size: 14px;&quot;&gt;Imagens RBNir (&lt;br style=&quot;font-size: 14px;&quot;&gt;&lt;span style=&quot;white-space: pre; font-size: 14px;&quot;&gt;&#x9;&lt;/span&gt;&lt;span style=&quot;white-space: pre; font-size: 14px;&quot;&gt;&#x9;&lt;/span&gt;data max evi)" style="text;html=1;align=left;verticalAlign=middle;resizable=0;points=[];autosize=1;strokeColor=none;fillColor=none;fontSize=14;" parent="ORIvwSizXhw8nShr5_tj-5" vertex="1">
          <mxGeometry x="10" y="30" width="170" height="200" as="geometry" />
        </mxCell>
        <mxCell id="PVb6LjIy3GLqianQb5Y7-51" style="edgeStyle=orthogonalEdgeStyle;rounded=0;orthogonalLoop=1;jettySize=auto;html=1;entryX=0;entryY=0;entryDx=0;entryDy=0;fillColor=#1ba1e2;strokeColor=#006EAF;strokeWidth=3;dashed=1;fontSize=14;" parent="1" source="ORIvwSizXhw8nShr5_tj-11" target="ORIvwSizXhw8nShr5_tj-23" edge="1">
          <mxGeometry relative="1" as="geometry">
            <Array as="points">
              <mxPoint x="-275" y="520" />
              <mxPoint x="-90" y="520" />
              <mxPoint x="-90" y="840" />
              <mxPoint x="475" y="840" />
            </Array>
          </mxGeometry>
        </mxCell>
        <mxCell id="ORIvwSizXhw8nShr5_tj-11" value="API&amp;nbsp; Weather" style="swimlane;whiteSpace=wrap;html=1;fontSize=14;" parent="1" vertex="1">
          <mxGeometry x="-434" y="350" width="280" height="200" as="geometry" />
        </mxCell>
        <mxCell id="ORIvwSizXhw8nShr5_tj-12" value="Recebe:&lt;br style=&quot;font-size: 14px;&quot;&gt;requisição (&lt;br style=&quot;font-size: 14px;&quot;&gt;&#x9;&lt;span style=&quot;font-size: 14px;&quot;&gt;&lt;span style=&quot;white-space: pre; font-size: 14px;&quot;&gt;&amp;nbsp;&amp;nbsp;&amp;nbsp;&lt;span style=&quot;white-space: pre; font-size: 14px;&quot;&gt;&#x9;&lt;/span&gt;&lt;span style=&quot;white-space: pre; font-size: 14px;&quot;&gt;&#x9;&lt;/span&gt;&amp;nbsp;&lt;/span&gt;&lt;/span&gt;janela de tempo (t),&lt;br style=&quot;font-size: 14px;&quot;&gt;&lt;span style=&quot;font-size: 14px;&quot;&gt;&lt;span style=&quot;white-space: pre; font-size: 14px;&quot;&gt;&amp;nbsp;&amp;nbsp;&amp;nbsp;&amp;nbsp;&lt;/span&gt;&lt;/span&gt;&lt;span style=&quot;font-size: 14px;&quot;&gt;&lt;span style=&quot;white-space: pre; font-size: 14px;&quot;&gt;&amp;nbsp;&amp;nbsp;&amp;nbsp;&amp;nbsp;&lt;span style=&quot;white-space: pre; font-size: 14px;&quot;&gt;&#x9;&lt;/span&gt; &lt;/span&gt;&lt;/span&gt;coordenadas)&lt;br style=&quot;font-size: 14px;&quot;&gt;&lt;br style=&quot;font-size: 14px;&quot;&gt;Retorna:&lt;br style=&quot;font-size: 14px;&quot;&gt;Matriz de dados climáticos na janela (t)" style="text;html=1;align=left;verticalAlign=middle;resizable=0;points=[];autosize=1;strokeColor=none;fillColor=none;fontSize=14;" parent="ORIvwSizXhw8nShr5_tj-11" vertex="1">
          <mxGeometry x="10" y="45" width="270" height="130" as="geometry" />
        </mxCell>
        <mxCell id="ORIvwSizXhw8nShr5_tj-18" value="Tabela: Monitoramento" style="swimlane;whiteSpace=wrap;html=1;fontSize=14;" parent="1" vertex="1">
          <mxGeometry x="2770" y="950" width="230" height="200" as="geometry" />
        </mxCell>
        <mxCell id="ORIvwSizXhw8nShr5_tj-19" value="chave: Coordenadas Geográficas&lt;br style=&quot;font-size: 14px;&quot;&gt;&lt;br style=&quot;font-size: 14px;&quot;&gt;&lt;span style=&quot;font-size: 14px;&quot;&gt;Semana 1&lt;br style=&quot;font-size: 14px;&quot;&gt;Semana 2&lt;br style=&quot;font-size: 14px;&quot;&gt;&lt;span style=&quot;white-space: pre; font-size: 14px;&quot;&gt;&#x9;&lt;/span&gt;.&lt;br style=&quot;font-size: 14px;&quot;&gt;&lt;span style=&quot;white-space: pre; font-size: 14px;&quot;&gt;&#x9;&lt;/span&gt;.&lt;br style=&quot;font-size: 14px;&quot;&gt;&lt;span style=&quot;white-space: pre; font-size: 14px;&quot;&gt;&#x9;&lt;/span&gt;.&lt;br style=&quot;font-size: 14px;&quot;&gt;Semana n&lt;br style=&quot;font-size: 14px;&quot;&gt;&lt;/span&gt;" style="text;html=1;align=left;verticalAlign=middle;resizable=0;points=[];autosize=1;strokeColor=none;fillColor=none;fontSize=14;" parent="ORIvwSizXhw8nShr5_tj-18" vertex="1">
          <mxGeometry y="25" width="230" height="150" as="geometry" />
        </mxCell>
        <mxCell id="WEIgwf60Te2D53e0nA5A-14" style="edgeStyle=orthogonalEdgeStyle;rounded=0;orthogonalLoop=1;jettySize=auto;html=1;entryX=0;entryY=0.25;entryDx=0;entryDy=0;fillColor=#e3c800;strokeColor=#B09500;strokeWidth=3;fontSize=14;" edge="1" parent="1" source="ORIvwSizXhw8nShr5_tj-21" target="ORIvwSizXhw8nShr5_tj-31">
          <mxGeometry relative="1" as="geometry">
            <Array as="points">
              <mxPoint x="180" y="370" />
              <mxPoint x="250" y="370" />
              <mxPoint x="250" y="110" />
            </Array>
          </mxGeometry>
        </mxCell>
        <mxCell id="ORIvwSizXhw8nShr5_tj-21" value="Tabela: Área Segurada" style="swimlane;whiteSpace=wrap;html=1;fontSize=14;" parent="1" vertex="1">
          <mxGeometry x="25" y="950" width="200" height="200" as="geometry" />
        </mxCell>
        <mxCell id="ORIvwSizXhw8nShr5_tj-22" value="chave: CPF&lt;br style=&quot;font-size: 14px;&quot;&gt;&lt;br style=&quot;font-size: 14px;&quot;&gt;Coordenadas Geográficas&lt;br style=&quot;font-size: 14px;&quot;&gt;KML&lt;br style=&quot;font-size: 14px;&quot;&gt;Imagem RGB data 0&lt;br style=&quot;font-size: 14px;&quot;&gt;Imagem RBNir data 0&lt;br style=&quot;font-size: 14px;&quot;&gt;Confirmação da cultura&amp;nbsp;" style="text;html=1;align=left;verticalAlign=middle;resizable=0;points=[];autosize=1;strokeColor=none;fillColor=none;fontSize=14;" parent="ORIvwSizXhw8nShr5_tj-21" vertex="1">
          <mxGeometry x="5" y="30" width="190" height="130" as="geometry" />
        </mxCell>
        <mxCell id="WEIgwf60Te2D53e0nA5A-33" style="edgeStyle=orthogonalEdgeStyle;rounded=0;orthogonalLoop=1;jettySize=auto;html=1;entryX=0;entryY=1;entryDx=0;entryDy=0;fillColor=#d80073;strokeColor=#A50040;strokeWidth=3;exitX=1;exitY=0;exitDx=0;exitDy=0;dashed=1;fontSize=14;" edge="1" parent="1" source="ORIvwSizXhw8nShr5_tj-23" target="ORIvwSizXhw8nShr5_tj-39">
          <mxGeometry relative="1" as="geometry">
            <mxPoint x="1320" y="950" as="sourcePoint" />
            <mxPoint x="1809" y="320" as="targetPoint" />
            <Array as="points">
              <mxPoint x="1592" y="800" />
              <mxPoint x="2520" y="800" />
            </Array>
          </mxGeometry>
        </mxCell>
        <mxCell id="WEIgwf60Te2D53e0nA5A-39" style="edgeStyle=orthogonalEdgeStyle;rounded=0;orthogonalLoop=1;jettySize=auto;html=1;entryX=0.25;entryY=1;entryDx=0;entryDy=0;fillColor=#d80073;strokeColor=#A50040;strokeWidth=3;fontSize=14;" edge="1" parent="1" source="ORIvwSizXhw8nShr5_tj-23" target="ORIvwSizXhw8nShr5_tj-48">
          <mxGeometry relative="1" as="geometry">
            <Array as="points">
              <mxPoint x="1510" y="590" />
              <mxPoint x="1773" y="590" />
            </Array>
          </mxGeometry>
        </mxCell>
        <mxCell id="ORIvwSizXhw8nShr5_tj-23" value="Tabela: Histórico" style="swimlane;whiteSpace=wrap;html=1;fontSize=14;" parent="1" vertex="1">
          <mxGeometry x="1320" y="950" width="272" height="200" as="geometry" />
        </mxCell>
        <mxCell id="ORIvwSizXhw8nShr5_tj-24" value="chave: Coordenadas Geográficas&lt;br style=&quot;font-size: 14px;&quot;&gt;&lt;br style=&quot;font-size: 14px;&quot;&gt;Vetor Histórico de Culturas&lt;br style=&quot;font-size: 14px;&quot;&gt;NDVI&lt;br style=&quot;font-size: 14px;&quot;&gt;EVI&lt;br style=&quot;font-size: 14px;&quot;&gt;Matriz de dados climáticos na janela (t)" style="text;html=1;align=left;verticalAlign=middle;resizable=0;points=[];autosize=1;strokeColor=none;fillColor=none;fontSize=14;" parent="ORIvwSizXhw8nShr5_tj-23" vertex="1">
          <mxGeometry x="2" y="30" width="270" height="110" as="geometry" />
        </mxCell>
        <mxCell id="WEIgwf60Te2D53e0nA5A-31" style="edgeStyle=orthogonalEdgeStyle;rounded=0;orthogonalLoop=1;jettySize=auto;html=1;entryX=0.25;entryY=0;entryDx=0;entryDy=0;fillColor=#60a917;strokeColor=#2D7600;strokeWidth=3;fontSize=14;" edge="1" parent="1" source="ORIvwSizXhw8nShr5_tj-31" target="WEIgwf60Te2D53e0nA5A-9">
          <mxGeometry relative="1" as="geometry">
            <Array as="points">
              <mxPoint x="350" y="650" />
              <mxPoint x="508" y="650" />
            </Array>
          </mxGeometry>
        </mxCell>
        <mxCell id="ORIvwSizXhw8nShr5_tj-31" value="Machine Learning 1" style="swimlane;whiteSpace=wrap;html=1;fontSize=14;" parent="1" vertex="1">
          <mxGeometry x="279" y="30" width="200" height="320" as="geometry" />
        </mxCell>
        <mxCell id="ORIvwSizXhw8nShr5_tj-32" value="&lt;br style=&quot;font-size: 14px;&quot;&gt;Gatilho:&lt;br style=&quot;font-size: 14px;&quot;&gt;Imagem RBNir data 0&lt;br style=&quot;font-size: 14px;&quot;&gt;&lt;br style=&quot;font-size: 14px;&quot;&gt;recebe: &lt;br style=&quot;font-size: 14px;&quot;&gt;Imagem RBNir&lt;br style=&quot;font-size: 14px;&quot;&gt;&lt;br style=&quot;font-size: 14px;&quot;&gt;Retorna:&lt;br style=&quot;font-size: 14px;&quot;&gt;CNN Binária 1&lt;br style=&quot;font-size: 14px;&quot;&gt;CNN Binária 2&lt;br style=&quot;font-size: 14px;&quot;&gt;CNN Binária 3&lt;br style=&quot;font-size: 14px;&quot;&gt;CNN Binária 4&lt;br style=&quot;font-size: 14px;&quot;&gt;CNN Binária 5&lt;br style=&quot;font-size: 14px;&quot;&gt;CNN Binária 6&lt;br style=&quot;font-size: 14px;&quot;&gt;CNN Binária 7" style="text;html=1;align=left;verticalAlign=middle;resizable=0;points=[];autosize=1;strokeColor=none;fillColor=none;fontSize=14;" parent="ORIvwSizXhw8nShr5_tj-31" vertex="1">
          <mxGeometry x="17" y="35" width="160" height="270" as="geometry" />
        </mxCell>
        <mxCell id="WEIgwf60Te2D53e0nA5A-36" style="edgeStyle=orthogonalEdgeStyle;rounded=0;orthogonalLoop=1;jettySize=auto;html=1;entryX=1;entryY=0;entryDx=0;entryDy=0;fillColor=#0050ef;strokeColor=#001DBC;strokeWidth=3;dashed=1;fontSize=14;" edge="1" parent="1" source="ORIvwSizXhw8nShr5_tj-39" target="WEIgwf60Te2D53e0nA5A-9">
          <mxGeometry relative="1" as="geometry">
            <mxPoint x="1580" y="790" as="targetPoint" />
            <Array as="points">
              <mxPoint x="1790" y="890" />
              <mxPoint x="505" y="890" />
            </Array>
          </mxGeometry>
        </mxCell>
        <mxCell id="ORIvwSizXhw8nShr5_tj-39" value="Machine Learning 5" style="swimlane;whiteSpace=wrap;html=1;fontSize=14;" parent="1" vertex="1">
          <mxGeometry x="2520" y="47.5" width="220" height="290" as="geometry" />
        </mxCell>
        <mxCell id="ORIvwSizXhw8nShr5_tj-40" value="Gatilho:&lt;br style=&quot;font-size: 14px;&quot;&gt;Tabela Histórico&lt;br style=&quot;font-size: 14px;&quot;&gt;&lt;br style=&quot;font-size: 14px;&quot;&gt;Recebe;&lt;br style=&quot;font-size: 14px;&quot;&gt;vetor&amp;nbsp; EVI&lt;br style=&quot;font-size: 14px;&quot;&gt;Vetor NDVI&lt;br style=&quot;font-size: 14px;&quot;&gt;Matriz dados Climáticos&lt;br style=&quot;font-size: 14px;&quot;&gt;Vetor de Histórico de Cultivo&lt;br style=&quot;font-size: 14px;&quot;&gt;&lt;br style=&quot;font-size: 14px;&quot;&gt;Retorna:&lt;br style=&quot;font-size: 14px;&quot;&gt;Vetor Mecanismo de Atenção" style="text;html=1;align=left;verticalAlign=middle;resizable=0;points=[];autosize=1;strokeColor=none;fillColor=none;fontSize=14;" parent="ORIvwSizXhw8nShr5_tj-39" vertex="1">
          <mxGeometry x="10" y="45" width="210" height="200" as="geometry" />
        </mxCell>
        <mxCell id="WEIgwf60Te2D53e0nA5A-37" style="edgeStyle=orthogonalEdgeStyle;rounded=0;orthogonalLoop=1;jettySize=auto;html=1;entryX=1;entryY=0.25;entryDx=0;entryDy=0;fillColor=#e6d0de;gradientColor=#d5739d;strokeColor=#996185;strokeWidth=3;exitX=0.25;exitY=1;exitDx=0;exitDy=0;dashed=1;fontSize=14;" edge="1" parent="1" source="ORIvwSizXhw8nShr5_tj-39" target="WEIgwf60Te2D53e0nA5A-9">
          <mxGeometry relative="1" as="geometry">
            <mxPoint x="2038.6000000000004" y="230" as="sourcePoint" />
            <mxPoint x="940" y="940" as="targetPoint" />
            <Array as="points">
              <mxPoint x="2570" y="338" />
              <mxPoint x="2570" y="670" />
              <mxPoint x="740" y="670" />
              <mxPoint x="740" y="1000" />
            </Array>
          </mxGeometry>
        </mxCell>
        <mxCell id="WEIgwf60Te2D53e0nA5A-38" style="edgeStyle=orthogonalEdgeStyle;rounded=0;orthogonalLoop=1;jettySize=auto;html=1;entryX=0.5;entryY=0;entryDx=0;entryDy=0;fillColor=#1ba1e2;strokeColor=#006EAF;strokeWidth=3;dashed=1;fontSize=14;" edge="1" parent="1" source="ORIvwSizXhw8nShr5_tj-41" target="ORIvwSizXhw8nShr5_tj-18">
          <mxGeometry relative="1" as="geometry" />
        </mxCell>
        <mxCell id="ORIvwSizXhw8nShr5_tj-41" value="Machine Learning 6" style="swimlane;whiteSpace=wrap;html=1;fontSize=14;" parent="1" vertex="1">
          <mxGeometry x="2830" y="47.5" width="245" height="252.5" as="geometry" />
        </mxCell>
        <mxCell id="ORIvwSizXhw8nShr5_tj-42" value="&lt;br style=&quot;font-size: 14px;&quot;&gt;Gatilho:&lt;br style=&quot;font-size: 14px;&quot;&gt;Resultado machine learning 5&lt;br style=&quot;font-size: 14px;&quot;&gt;&lt;br style=&quot;font-size: 14px;&quot;&gt;Recebe:&lt;br style=&quot;font-size: 14px;&quot;&gt;&amp;nbsp;Vetor de Atenção&lt;br style=&quot;font-size: 14px;&quot;&gt;&lt;br style=&quot;font-size: 14px;&quot;&gt;Retorna&amp;nbsp;&lt;br style=&quot;font-size: 14px;&quot;&gt;LSTM probabilidade de Frustracao&lt;br style=&quot;font-size: 14px;&quot;&gt;" style="text;html=1;align=left;verticalAlign=middle;resizable=0;points=[];autosize=1;strokeColor=none;fillColor=none;fontSize=14;" parent="ORIvwSizXhw8nShr5_tj-41" vertex="1">
          <mxGeometry x="5" y="42.5" width="240" height="160" as="geometry" />
        </mxCell>
        <mxCell id="WEIgwf60Te2D53e0nA5A-40" style="edgeStyle=orthogonalEdgeStyle;rounded=0;orthogonalLoop=1;jettySize=auto;html=1;fillColor=#e6d0de;gradientColor=#d5739d;strokeColor=#996185;strokeWidth=3;fontSize=14;" edge="1" parent="1" source="ORIvwSizXhw8nShr5_tj-48" target="PVb6LjIy3GLqianQb5Y7-55">
          <mxGeometry relative="1" as="geometry">
            <Array as="points">
              <mxPoint x="1845" y="720" />
              <mxPoint x="1014" y="720" />
            </Array>
          </mxGeometry>
        </mxCell>
        <mxCell id="ORIvwSizXhw8nShr5_tj-48" value="Machine Learning 7" style="swimlane;whiteSpace=wrap;html=1;fontSize=14;" parent="1" vertex="1">
          <mxGeometry x="1700" y="50" width="290" height="200" as="geometry" />
        </mxCell>
        <mxCell id="ORIvwSizXhw8nShr5_tj-49" value="Recebe;&lt;br style=&quot;font-size: 14px;&quot;&gt;&lt;span style=&quot;font-size: 14px;&quot;&gt;vetor&amp;nbsp; EVI&lt;/span&gt;&lt;br style=&quot;font-size: 14px;&quot;&gt;&lt;span style=&quot;font-size: 14px;&quot;&gt;Vetor NDVI&lt;/span&gt;&lt;br style=&quot;font-size: 14px;&quot;&gt;&lt;span style=&quot;font-size: 14px;&quot;&gt;Matriz dados Climáticos&lt;/span&gt;&lt;br style=&quot;font-size: 14px;&quot;&gt;&lt;br style=&quot;font-size: 14px;&quot;&gt;&lt;span style=&quot;font-size: 14px;&quot;&gt;Retorna:&lt;/span&gt;&lt;br style=&quot;font-size: 14px;&quot;&gt;Encoder-Decoder Anomalias no histórico" style="text;html=1;align=left;verticalAlign=middle;resizable=0;points=[];autosize=1;strokeColor=none;fillColor=none;fontSize=14;" parent="ORIvwSizXhw8nShr5_tj-48" vertex="1">
          <mxGeometry x="10" y="35" width="280" height="130" as="geometry" />
        </mxCell>
        <mxCell id="WEIgwf60Te2D53e0nA5A-17" style="edgeStyle=orthogonalEdgeStyle;rounded=0;orthogonalLoop=1;jettySize=auto;html=1;entryX=0;entryY=0;entryDx=0;entryDy=0;fillColor=#60a917;strokeColor=#2D7600;strokeWidth=3;fontSize=14;" edge="1" parent="1" source="ORIvwSizXhw8nShr5_tj-33" target="PVb6LjIy3GLqianQb5Y7-55">
          <mxGeometry relative="1" as="geometry">
            <Array as="points">
              <mxPoint x="790" y="640" />
              <mxPoint x="898" y="640" />
            </Array>
          </mxGeometry>
        </mxCell>
        <mxCell id="ORIvwSizXhw8nShr5_tj-33" value="Machine Learning 2" style="swimlane;whiteSpace=wrap;html=1;fontSize=14;" parent="1" vertex="1">
          <mxGeometry x="556" y="30" width="271" height="320" as="geometry" />
        </mxCell>
        <mxCell id="ORIvwSizXhw8nShr5_tj-34" value="Gatilho:&lt;br style=&quot;font-size: 14px;&quot;&gt;Resultado Machine Learning 1&lt;br style=&quot;font-size: 14px;&quot;&gt;&lt;br style=&quot;font-size: 14px;&quot;&gt;recebe:&lt;br style=&quot;font-size: 14px;&quot;&gt;&lt;span style=&quot;font-size: 14px;&quot;&gt;CNN Binária 1&lt;/span&gt;&lt;br style=&quot;font-size: 14px;&quot;&gt;&lt;span style=&quot;font-size: 14px;&quot;&gt;CNN Binária 2&lt;/span&gt;&lt;br style=&quot;font-size: 14px;&quot;&gt;&lt;span style=&quot;font-size: 14px;&quot;&gt;CNN Binária 3&lt;/span&gt;&lt;br style=&quot;font-size: 14px;&quot;&gt;&lt;span style=&quot;font-size: 14px;&quot;&gt;CNN Binária 4&lt;/span&gt;&lt;br style=&quot;font-size: 14px;&quot;&gt;&lt;span style=&quot;font-size: 14px;&quot;&gt;CNN Binária 5&lt;/span&gt;&lt;br style=&quot;font-size: 14px;&quot;&gt;&lt;span style=&quot;font-size: 14px;&quot;&gt;CNN Binária 6&lt;/span&gt;&lt;br style=&quot;font-size: 14px;&quot;&gt;&lt;span style=&quot;font-size: 14px;&quot;&gt;CNN Binária 7&lt;br style=&quot;font-size: 14px;&quot;&gt;&lt;br style=&quot;font-size: 14px;&quot;&gt;Retorna:&lt;br style=&quot;font-size: 14px;&quot;&gt;MLP&amp;nbsp; (verificação de cultura na data 0)&lt;br style=&quot;font-size: 14px;&quot;&gt;&lt;/span&gt;" style="text;html=1;align=left;verticalAlign=middle;resizable=0;points=[];autosize=1;strokeColor=none;fillColor=none;fontSize=14;" parent="ORIvwSizXhw8nShr5_tj-33" vertex="1">
          <mxGeometry x="11" y="25" width="260" height="250" as="geometry" />
        </mxCell>
        <mxCell id="PVb6LjIy3GLqianQb5Y7-20" style="edgeStyle=orthogonalEdgeStyle;rounded=0;orthogonalLoop=1;jettySize=auto;html=1;entryX=0;entryY=0.5;entryDx=0;entryDy=0;strokeWidth=3;fillColor=#60a917;strokeColor=#2D7600;dashed=1;fontSize=14;" parent="1" source="ORIvwSizXhw8nShr5_tj-4" target="ORIvwSizXhw8nShr5_tj-5" edge="1">
          <mxGeometry relative="1" as="geometry" />
        </mxCell>
        <mxCell id="X6piOqQepDoEUoRMNW9H-3" style="edgeStyle=orthogonalEdgeStyle;rounded=0;orthogonalLoop=1;jettySize=auto;html=1;entryX=0;entryY=1;entryDx=0;entryDy=0;fillColor=#d80073;strokeColor=#A50040;strokeWidth=3;fontSize=14;" edge="1" parent="1" source="PVb6LjIy3GLqianQb5Y7-55" target="WEIgwf60Te2D53e0nA5A-42">
          <mxGeometry relative="1" as="geometry">
            <Array as="points">
              <mxPoint x="1090" y="750" />
              <mxPoint x="2090" y="750" />
            </Array>
          </mxGeometry>
        </mxCell>
        <mxCell id="PVb6LjIy3GLqianQb5Y7-55" value="Tabela: Alertas" style="swimlane;whiteSpace=wrap;html=1;fontSize=14;" parent="1" vertex="1">
          <mxGeometry x="898" y="940" width="232" height="200" as="geometry" />
        </mxCell>
        <mxCell id="PVb6LjIy3GLqianQb5Y7-56" value="chave: Coordenadas Geográficas&lt;br style=&quot;font-size: 14px;&quot;&gt;&lt;br style=&quot;font-size: 14px;&quot;&gt;Verificação de Cultura data 0&lt;br style=&quot;font-size: 14px;&quot;&gt;Anomalias no histórico&lt;br style=&quot;font-size: 14px;&quot;&gt;Risco na data 0" style="text;html=1;align=left;verticalAlign=middle;resizable=0;points=[];autosize=1;strokeColor=none;fillColor=none;fontSize=14;" parent="PVb6LjIy3GLqianQb5Y7-55" vertex="1">
          <mxGeometry x="1" y="40" width="230" height="100" as="geometry" />
        </mxCell>
        <mxCell id="WEIgwf60Te2D53e0nA5A-21" style="edgeStyle=orthogonalEdgeStyle;rounded=0;orthogonalLoop=1;jettySize=auto;html=1;entryX=0;entryY=0.25;entryDx=0;entryDy=0;fillColor=#e3c800;strokeColor=#B09500;strokeWidth=3;fontSize=14;" edge="1" parent="1" source="WEIgwf60Te2D53e0nA5A-9" target="ORIvwSizXhw8nShr5_tj-33">
          <mxGeometry relative="1" as="geometry">
            <Array as="points">
              <mxPoint x="556" y="390" />
              <mxPoint x="510" y="390" />
              <mxPoint x="510" y="110" />
            </Array>
          </mxGeometry>
        </mxCell>
        <mxCell id="WEIgwf60Te2D53e0nA5A-27" style="edgeStyle=orthogonalEdgeStyle;rounded=0;orthogonalLoop=1;jettySize=auto;html=1;entryX=0;entryY=0.25;entryDx=0;entryDy=0;fillColor=#e3c800;strokeColor=#B09500;strokeWidth=3;fontSize=14;" edge="1" parent="1" source="WEIgwf60Te2D53e0nA5A-9" target="WEIgwf60Te2D53e0nA5A-25">
          <mxGeometry relative="1" as="geometry">
            <Array as="points">
              <mxPoint x="680" y="590" />
              <mxPoint x="1170" y="590" />
              <mxPoint x="1170" y="110" />
            </Array>
          </mxGeometry>
        </mxCell>
        <mxCell id="WEIgwf60Te2D53e0nA5A-28" style="edgeStyle=orthogonalEdgeStyle;rounded=0;orthogonalLoop=1;jettySize=auto;html=1;entryX=0;entryY=0.25;entryDx=0;entryDy=0;fillColor=#e3c800;strokeColor=#B09500;strokeWidth=3;fontSize=14;" edge="1" parent="1" source="WEIgwf60Te2D53e0nA5A-9" target="WEIgwf60Te2D53e0nA5A-23">
          <mxGeometry relative="1" as="geometry">
            <Array as="points">
              <mxPoint x="600" y="470" />
              <mxPoint x="870" y="470" />
              <mxPoint x="870" y="110" />
            </Array>
          </mxGeometry>
        </mxCell>
        <mxCell id="WEIgwf60Te2D53e0nA5A-41" style="edgeStyle=orthogonalEdgeStyle;rounded=0;orthogonalLoop=1;jettySize=auto;html=1;entryX=0;entryY=1;entryDx=0;entryDy=0;fillColor=#d80073;strokeColor=#A50040;strokeWidth=3;dashed=1;fontSize=14;" edge="1" parent="1" source="WEIgwf60Te2D53e0nA5A-9" target="ORIvwSizXhw8nShr5_tj-41">
          <mxGeometry relative="1" as="geometry">
            <Array as="points">
              <mxPoint x="810" y="1050" />
              <mxPoint x="810" y="700" />
              <mxPoint x="2830" y="700" />
            </Array>
          </mxGeometry>
        </mxCell>
        <mxCell id="WEIgwf60Te2D53e0nA5A-9" value="Tabela: Registro Interno" style="swimlane;whiteSpace=wrap;html=1;fontSize=14;" vertex="1" parent="1">
          <mxGeometry x="440" y="950" width="270" height="205" as="geometry" />
        </mxCell>
        <mxCell id="WEIgwf60Te2D53e0nA5A-10" value="&lt;br&gt;Chave: Coordenadas Geográficas&lt;br&gt;&lt;br&gt;Imagens RBNir (&lt;br style=&quot;font-size: 14px;&quot;&gt;&lt;span style=&quot;font-size: 14px;&quot;&gt;&lt;span style=&quot;white-space: pre; font-size: 14px;&quot;&gt;&amp;nbsp;&amp;nbsp;&amp;nbsp;&amp;nbsp;&lt;/span&gt;&lt;/span&gt;&lt;span style=&quot;font-size: 14px;&quot;&gt;&lt;span style=&quot;white-space: pre; font-size: 14px;&quot;&gt;&amp;nbsp;&amp;nbsp;&amp;nbsp;&amp;nbsp;&lt;/span&gt;&lt;/span&gt;&lt;span style=&quot;font-size: 14px;&quot;&gt;data max evi)&lt;/span&gt;&lt;br style=&quot;font-size: 14px;&quot;&gt;&lt;br style=&quot;font-size: 14px;&quot;&gt;Resultado Machine Learning 1&lt;br style=&quot;font-size: 14px;&quot;&gt;&lt;br style=&quot;font-size: 14px;&quot;&gt;Resultado Machine Learning 3&lt;br style=&quot;font-size: 14px;&quot;&gt;&lt;br style=&quot;font-size: 14px;&quot;&gt;Resultado Machine Learning 5" style="text;html=1;align=left;verticalAlign=middle;resizable=0;points=[];autosize=1;strokeColor=none;fillColor=none;fontSize=14;" vertex="1" parent="WEIgwf60Te2D53e0nA5A-9">
          <mxGeometry x="5" y="5" width="240" height="200" as="geometry" />
        </mxCell>
        <mxCell id="WEIgwf60Te2D53e0nA5A-22" style="edgeStyle=orthogonalEdgeStyle;rounded=0;orthogonalLoop=1;jettySize=auto;html=1;entryX=0;entryY=0;entryDx=0;entryDy=0;fillColor=#60a917;strokeColor=#2D7600;strokeWidth=3;dashed=1;fontSize=14;" edge="1" parent="1" source="ORIvwSizXhw8nShr5_tj-6" target="WEIgwf60Te2D53e0nA5A-9">
          <mxGeometry relative="1" as="geometry">
            <Array as="points">
              <mxPoint x="140" y="690" />
              <mxPoint x="440" y="690" />
            </Array>
          </mxGeometry>
        </mxCell>
        <mxCell id="WEIgwf60Te2D53e0nA5A-30" style="edgeStyle=orthogonalEdgeStyle;rounded=0;orthogonalLoop=1;jettySize=auto;html=1;entryX=0.75;entryY=0;entryDx=0;entryDy=0;fillColor=#60a917;strokeColor=#2D7600;strokeWidth=3;fontSize=14;" edge="1" parent="1" target="WEIgwf60Te2D53e0nA5A-9">
          <mxGeometry relative="1" as="geometry">
            <mxPoint x="1069" y="350" as="sourcePoint" />
            <mxPoint x="681.5" y="950" as="targetPoint" />
            <Array as="points">
              <mxPoint x="1069" y="520" />
              <mxPoint x="643" y="520" />
            </Array>
          </mxGeometry>
        </mxCell>
        <mxCell id="WEIgwf60Te2D53e0nA5A-23" value="Machine Learning&amp;nbsp; 3" style="swimlane;whiteSpace=wrap;html=1;fontSize=14;" vertex="1" parent="1">
          <mxGeometry x="930" y="30" width="200" height="320" as="geometry" />
        </mxCell>
        <mxCell id="WEIgwf60Te2D53e0nA5A-24" value="&lt;br style=&quot;font-size: 14px;&quot;&gt;Gatilho:&lt;br style=&quot;font-size: 14px;&quot;&gt;Imagens RBNir (&lt;br style=&quot;font-size: 14px;&quot;&gt;&amp;nbsp;&amp;nbsp;&amp;nbsp;&amp;nbsp;&lt;span style=&quot;font-size: 14px;&quot;&gt;&amp;nbsp;&amp;nbsp;&amp;nbsp;&amp;nbsp;&lt;/span&gt;data max evi)&lt;br style=&quot;font-size: 14px;&quot;&gt;&lt;br style=&quot;font-size: 14px;&quot;&gt;recebe: &lt;br style=&quot;font-size: 14px;&quot;&gt;lista RBNir&lt;br style=&quot;font-size: 14px;&quot;&gt;&lt;br style=&quot;font-size: 14px;&quot;&gt;Retorna:&lt;br style=&quot;font-size: 14px;&quot;&gt;CNN Binária 1 [n]&lt;br style=&quot;font-size: 14px;&quot;&gt;CNN Binária 2 [n]&lt;br style=&quot;font-size: 14px;&quot;&gt;CNN Binária 3 [n]&lt;br style=&quot;font-size: 14px;&quot;&gt;CNN Binária 4 [n]&lt;br style=&quot;font-size: 14px;&quot;&gt;CNN Binária 5 [n]&lt;br style=&quot;font-size: 14px;&quot;&gt;CNN Binária 6 [n]&lt;br style=&quot;font-size: 14px;&quot;&gt;CNN Binária 7 [n]" style="text;html=1;align=left;verticalAlign=middle;resizable=0;points=[];autosize=1;strokeColor=none;fillColor=none;fontSize=14;" vertex="1" parent="WEIgwf60Te2D53e0nA5A-23">
          <mxGeometry x="17" y="30" width="140" height="280" as="geometry" />
        </mxCell>
        <mxCell id="WEIgwf60Te2D53e0nA5A-25" value="Machine Learning 4" style="swimlane;whiteSpace=wrap;html=1;fontSize=14;" vertex="1" parent="1">
          <mxGeometry x="1209" y="30" width="271" height="320" as="geometry" />
        </mxCell>
        <mxCell id="WEIgwf60Te2D53e0nA5A-26" value="Gatilho:&lt;br style=&quot;font-size: 14px;&quot;&gt;Resultado Machine Learning&amp;nbsp; 3&lt;br style=&quot;font-size: 14px;&quot;&gt;&lt;br style=&quot;font-size: 14px;&quot;&gt;recebe:&lt;br style=&quot;font-size: 14px;&quot;&gt;CNN Binária 1 [n]&lt;br style=&quot;font-size: 14px;&quot;&gt;CNN Binária 2 [n]&lt;br style=&quot;font-size: 14px;&quot;&gt;CNN Binária 3 [n]&lt;br style=&quot;font-size: 14px;&quot;&gt;CNN Binária 4 [n]&lt;br style=&quot;font-size: 14px;&quot;&gt;CNN Binária 5 [n]&lt;br style=&quot;font-size: 14px;&quot;&gt;CNN Binária 6 [n]&lt;br style=&quot;font-size: 14px;&quot;&gt;CNN Binária 7 [n]&lt;br style=&quot;font-size: 14px;&quot;&gt;&lt;br style=&quot;font-size: 14px;&quot;&gt;Retorna:&lt;br style=&quot;font-size: 14px;&quot;&gt;MLP&amp;nbsp; (Vetor Histórico de Culturas)" style="text;html=1;align=left;verticalAlign=middle;resizable=0;points=[];autosize=1;strokeColor=none;fillColor=none;fontSize=14;" vertex="1" parent="WEIgwf60Te2D53e0nA5A-25">
          <mxGeometry x="11" y="25" width="240" height="250" as="geometry" />
        </mxCell>
        <mxCell id="WEIgwf60Te2D53e0nA5A-34" style="edgeStyle=orthogonalEdgeStyle;rounded=0;orthogonalLoop=1;jettySize=auto;html=1;entryX=0.25;entryY=0;entryDx=0;entryDy=0;fillColor=#1ba1e2;strokeColor=#006EAF;strokeWidth=3;fontSize=14;" edge="1" parent="1" source="ORIvwSizXhw8nShr5_tj-6" target="ORIvwSizXhw8nShr5_tj-23">
          <mxGeometry relative="1" as="geometry">
            <Array as="points">
              <mxPoint x="30" y="780" />
              <mxPoint x="1388" y="780" />
            </Array>
          </mxGeometry>
        </mxCell>
        <mxCell id="WEIgwf60Te2D53e0nA5A-35" style="edgeStyle=orthogonalEdgeStyle;rounded=0;orthogonalLoop=1;jettySize=auto;html=1;entryX=0.5;entryY=0;entryDx=0;entryDy=0;fillColor=#1ba1e2;strokeColor=#006EAF;strokeWidth=3;exitX=0.75;exitY=1;exitDx=0;exitDy=0;fontSize=14;" edge="1" parent="1" source="WEIgwf60Te2D53e0nA5A-25" target="ORIvwSizXhw8nShr5_tj-23">
          <mxGeometry relative="1" as="geometry">
            <mxPoint x="1246" y="360" as="sourcePoint" />
            <Array as="points">
              <mxPoint x="1412" y="460" />
              <mxPoint x="1456" y="460" />
            </Array>
          </mxGeometry>
        </mxCell>
        <mxCell id="WEIgwf60Te2D53e0nA5A-42" value="Processo 3" style="swimlane;whiteSpace=wrap;html=1;fontSize=14;" vertex="1" parent="1">
          <mxGeometry x="2090" y="350" width="295" height="200" as="geometry" />
        </mxCell>
        <mxCell id="WEIgwf60Te2D53e0nA5A-43" value="Gatilho:&lt;br style=&quot;font-size: 14px;&quot;&gt;Monitoramento Semana 1&lt;br style=&quot;font-size: 14px;&quot;&gt;Anomalias do histórico&lt;br style=&quot;font-size: 14px;&quot;&gt;&lt;br style=&quot;font-size: 14px;&quot;&gt;Recebe:&lt;br style=&quot;font-size: 14px;&quot;&gt;LSTM probabilidade de Frustracao&lt;br style=&quot;font-size: 14px;&quot;&gt;Encoder-Decoder Anomalias no histórico&lt;br style=&quot;font-size: 14px;&quot;&gt;&lt;br style=&quot;font-size: 14px;&quot;&gt;Retorna:&lt;br style=&quot;font-size: 14px;&quot;&gt;&amp;nbsp;Risco na data 0" style="text;html=1;align=left;verticalAlign=middle;resizable=0;points=[];autosize=1;strokeColor=none;fillColor=none;fontSize=14;" vertex="1" parent="WEIgwf60Te2D53e0nA5A-42">
          <mxGeometry x="15" y="20" width="280" height="180" as="geometry" />
        </mxCell>
        <mxCell id="X6piOqQepDoEUoRMNW9H-1" style="edgeStyle=orthogonalEdgeStyle;rounded=0;orthogonalLoop=1;jettySize=auto;html=1;entryX=0.75;entryY=1;entryDx=0;entryDy=0;fillColor=#d80073;strokeColor=#A50040;strokeWidth=3;fontSize=14;" edge="1" parent="1" source="ORIvwSizXhw8nShr5_tj-19" target="WEIgwf60Te2D53e0nA5A-42">
          <mxGeometry relative="1" as="geometry" />
        </mxCell>
        <mxCell id="X6piOqQepDoEUoRMNW9H-5" value="LEGENDA" style="swimlane;fontStyle=0;childLayout=stackLayout;horizontal=1;startSize=30;horizontalStack=0;resizeParent=1;resizeParentMax=0;resizeLast=0;collapsible=1;marginBottom=0;whiteSpace=wrap;html=1;fontSize=17;" vertex="1" parent="1">
          <mxGeometry x="-770" y="810" width="510" height="150" as="geometry" />
        </mxCell>
        <mxCell id="X6piOqQepDoEUoRMNW9H-7" value="Linhas Sólidas: Executado na Inserção do registro" style="text;strokeColor=none;fillColor=none;align=left;verticalAlign=middle;spacingLeft=4;spacingRight=4;overflow=hidden;points=[[0,0.5],[1,0.5]];portConstraint=eastwest;rotatable=0;whiteSpace=wrap;html=1;fontSize=17;" vertex="1" parent="X6piOqQepDoEUoRMNW9H-5">
          <mxGeometry y="30" width="510" height="30" as="geometry" />
        </mxCell>
        <mxCell id="X6piOqQepDoEUoRMNW9H-6" value="Pontilhado:&amp;nbsp; Executado semanalmente (monitoramento)" style="text;strokeColor=none;fillColor=none;align=left;verticalAlign=middle;spacingLeft=4;spacingRight=4;overflow=hidden;points=[[0,0.5],[1,0.5]];portConstraint=eastwest;rotatable=0;whiteSpace=wrap;html=1;fontSize=17;" vertex="1" parent="X6piOqQepDoEUoRMNW9H-5">
          <mxGeometry y="60" width="510" height="30" as="geometry" />
        </mxCell>
        <mxCell id="X6piOqQepDoEUoRMNW9H-8" value="Verde/Amarelo: Visão Computacional" style="text;strokeColor=none;fillColor=none;align=left;verticalAlign=middle;spacingLeft=4;spacingRight=4;overflow=hidden;points=[[0,0.5],[1,0.5]];portConstraint=eastwest;rotatable=0;whiteSpace=wrap;html=1;fontSize=17;" vertex="1" parent="X6piOqQepDoEUoRMNW9H-5">
          <mxGeometry y="90" width="510" height="30" as="geometry" />
        </mxCell>
        <mxCell id="X6piOqQepDoEUoRMNW9H-10" value="Azul/Rosa: Séries Temporais" style="text;strokeColor=none;fillColor=none;align=left;verticalAlign=middle;spacingLeft=4;spacingRight=4;overflow=hidden;points=[[0,0.5],[1,0.5]];portConstraint=eastwest;rotatable=0;whiteSpace=wrap;html=1;fontSize=17;" vertex="1" parent="X6piOqQepDoEUoRMNW9H-5">
          <mxGeometry y="120" width="510" height="30" as="geometry" />
        </mxCell>
      </root>
    </mxGraphModel>
  </diagram>
  <diagram id="2f404044-711c-603c-8f00-f6bb4c023d3c" name="ícones">
    <mxGraphModel dx="3217" dy="1313" grid="1" gridSize="10" guides="1" tooltips="1" connect="1" arrows="1" fold="1" page="1" pageScale="1" pageWidth="827" pageHeight="1169" background="none" math="0" shadow="0">
      <root>
        <mxCell id="0" />
        <mxCell id="1" parent="0" />
        <mxCell id="enr-6fXp8CIaaVfOY3aj-440" style="edgeStyle=orthogonalEdgeStyle;rounded=0;orthogonalLoop=1;jettySize=auto;html=1;exitX=0.5;exitY=0;exitDx=0;exitDy=0;entryX=0.5;entryY=1;entryDx=0;entryDy=0;" edge="1" parent="1" source="enr-6fXp8CIaaVfOY3aj-433" target="enr-6fXp8CIaaVfOY3aj-438">
          <mxGeometry relative="1" as="geometry" />
        </mxCell>
        <mxCell id="enr-6fXp8CIaaVfOY3aj-433" value="Instance Group" style="fontStyle=0;verticalAlign=top;align=center;spacingTop=-2;fillColor=none;rounded=0;whiteSpace=wrap;html=1;strokeColor=#00882B;strokeWidth=2;dashed=1;container=1;collapsible=0;expand=0;recursiveResize=0;" vertex="1" parent="1">
          <mxGeometry x="770" y="350" width="1130" height="670" as="geometry" />
        </mxCell>
        <mxCell id="enr-6fXp8CIaaVfOY3aj-434" value="" style="image;aspect=fixed;perimeter=ellipsePerimeter;html=1;align=center;shadow=0;dashed=0;fontColor=#4277BB;labelBackgroundColor=default;fontSize=12;spacingTop=3;image=img/lib/ibm/applications/actionable_insight.svg;" vertex="1" parent="enr-6fXp8CIaaVfOY3aj-433">
          <mxGeometry x="950" y="430" width="120" height="120" as="geometry" />
        </mxCell>
        <mxCell id="enr-6fXp8CIaaVfOY3aj-439" style="edgeStyle=orthogonalEdgeStyle;rounded=0;orthogonalLoop=1;jettySize=auto;html=1;entryX=0;entryY=0;entryDx=0;entryDy=0;" edge="1" parent="enr-6fXp8CIaaVfOY3aj-433" source="enr-6fXp8CIaaVfOY3aj-435" target="enr-6fXp8CIaaVfOY3aj-434">
          <mxGeometry relative="1" as="geometry" />
        </mxCell>
        <mxCell id="enr-6fXp8CIaaVfOY3aj-435" value="" style="image;aspect=fixed;perimeter=ellipsePerimeter;html=1;align=center;shadow=0;dashed=0;fontColor=#4277BB;labelBackgroundColor=default;fontSize=12;spacingTop=3;image=img/lib/ibm/applications/index.svg;" vertex="1" parent="enr-6fXp8CIaaVfOY3aj-433">
          <mxGeometry x="590" y="240" width="110" height="110" as="geometry" />
        </mxCell>
        <mxCell id="enr-6fXp8CIaaVfOY3aj-443" value="" style="sketch=0;points=[[0,0,0],[0.25,0,0],[0.5,0,0],[0.75,0,0],[1,0,0],[0,1,0],[0.25,1,0],[0.5,1,0],[0.75,1,0],[1,1,0],[0,0.25,0],[0,0.5,0],[0,0.75,0],[1,0.25,0],[1,0.5,0],[1,0.75,0]];outlineConnect=0;fontColor=#232F3E;gradientColor=#4AB29A;gradientDirection=north;fillColor=#116D5B;strokeColor=#ffffff;dashed=0;verticalLabelPosition=bottom;verticalAlign=top;align=center;html=1;fontSize=12;fontStyle=0;aspect=fixed;shape=mxgraph.aws4.resourceIcon;resIcon=mxgraph.aws4.fraud_detector;" vertex="1" parent="enr-6fXp8CIaaVfOY3aj-433">
          <mxGeometry x="480" y="60" width="98" height="98" as="geometry" />
        </mxCell>
        <mxCell id="enr-6fXp8CIaaVfOY3aj-480" value="&lt;font color=&quot;#ffffff&quot; style=&quot;font-size: 20px;&quot;&gt;CLASSE&lt;/font&gt;" style="editableCssRules=.*;html=1;shape=image;verticalLabelPosition=bottom;labelBackgroundColor=none;verticalAlign=top;aspect=fixed;imageAspect=0;image=data:image/svg+xml,PHN2ZyB4bWxucz0iaHR0cDovL3d3dy53My5vcmcvMjAwMC9zdmciIHhtbG5zOnY9Imh0dHBzOi8vdmVjdGEuaW8vbmFubyIgd2lkdGg9IjIwIiBoZWlnaHQ9IjE2IiB2aWV3Qm94PSIwIDAgMjAgMTYiPiYjeGE7CTxzdHlsZSB0eXBlPSJ0ZXh0L2NzcyI+JiN4YTsJLnN0MHtmaWxsOiM2NjlkZjY7fSYjeGE7CS5zdDF7ZmlsbDojYWVjYmZhO30mI3hhOwkuc3Qye2ZpbGw6IzQyODVmNDt9JiN4YTsJPC9zdHlsZT4mI3hhOwk8ZyBjbGFzcz0ic3QwIj4mI3hhOwkJPHBhdGggZD0iTTEwIDE2TDAgOGg0bDYgNC45OXoiLz4mI3hhOwkJPHBhdGggZD0iTTIwIDhsLTEwIDh2LTMuMDFMMTYgOHoiLz4mI3hhOwk8L2c+JiN4YTsJPGcgY2xhc3M9InN0MSI+JiN4YTsJCTxwYXRoIGQ9Ik0xMCAzLjAxTDQgOEgwbDEwLTh6Ii8+JiN4YTsJCTxwYXRoIGQ9Ik0yMCA4TDEwIDB2My4wMUwxNiA4eiIvPiYjeGE7CTwvZz4mI3hhOwk8Y2lyY2xlIGNsYXNzPSJzdDIiIGN4PSIxMCIgY3k9IjgiIHI9IjIiLz4mI3hhOzwvc3ZnPg==;" vertex="1" parent="enr-6fXp8CIaaVfOY3aj-433">
          <mxGeometry x="30" y="340" width="170" height="136" as="geometry" />
        </mxCell>
        <mxCell id="enr-6fXp8CIaaVfOY3aj-476" value="" style="image;sketch=0;aspect=fixed;html=1;points=[];align=center;fontSize=12;image=img/lib/mscae/Grid3x3.svg;" vertex="1" parent="enr-6fXp8CIaaVfOY3aj-433">
          <mxGeometry x="280" y="90" width="120" height="120" as="geometry" />
        </mxCell>
        <mxCell id="enr-6fXp8CIaaVfOY3aj-437" value="Classic Infrastructure" style="shape=mxgraph.ibm.box;prType=classic;fontStyle=0;verticalAlign=top;align=left;spacingLeft=32;spacingTop=4;fillColor=none;rounded=0;whiteSpace=wrap;html=1;strokeColor=#4376BB;strokeWidth=2;dashed=0;container=1;spacing=-4;collapsible=0;expand=0;recursiveResize=0;" vertex="1" parent="1">
          <mxGeometry x="130" y="350" width="530" height="680" as="geometry" />
        </mxCell>
        <mxCell id="enr-6fXp8CIaaVfOY3aj-483" value="" style="editableCssRules=.*;html=1;shape=image;verticalLabelPosition=bottom;labelBackgroundColor=#ffffff;verticalAlign=top;aspect=fixed;imageAspect=0;image=data:image/svg+xml,PHN2ZyB4bWxucz0iaHR0cDovL3d3dy53My5vcmcvMjAwMC9zdmciIHhtbG5zOnY9Imh0dHBzOi8vdmVjdGEuaW8vbmFubyIgd2lkdGg9IjMwIiBoZWlnaHQ9IjIxIiB2aWV3Qm94PSIwIDAgMzAgMjEiPiYjeGE7CTxzdHlsZSB0eXBlPSJ0ZXh0L2NzcyI+JiN4YTsJLnN0MHtmaWxsOiM0Mjg1ZjQ7fSYjeGE7CS5zdDF7ZmlsbDojNjY5ZGY2O30mI3hhOwkuc3Qye2ZpbGw6I2FlY2JmYTt9JiN4YTsJLnN0M3tmaWxsOiNmZmY7fSYjeGE7CTwvc3R5bGU+JiN4YTsJPHBhdGggZD0iTTAgMGwxLjUgMS41aDZMOSAweiIgY2xhc3M9InN0MiIvPiYjeGE7CTxwYXRoIGQ9Ik05IDlWMEw3LjUgMS41djZ6IiBjbGFzcz0ic3QxIi8+JiN4YTsJPHBhdGggZD0iTTAgOWwxLjUtMS41di02TDAgMHoiIGNsYXNzPSJzdDIiLz4mI3hhOwk8cGF0aCBkPSJNOSA5TDcuNSA3LjVoLTZMMCA5eiIgY2xhc3M9InN0MCIvPiYjeGE7CTxwYXRoIGQ9Ik0xLjUgMS41aDZ2NmgtNnoiIGNsYXNzPSJzdDIiLz4mI3hhOwk8cGF0aCBkPSJNMTAuNSAwTDEyIDEuNWg2TDE5LjUgMHoiIGNsYXNzPSJzdDAiLz4mI3hhOwk8cGF0aCBkPSJNMTkuNSA5VjBMMTggMS41djZ6IiBjbGFzcz0ic3QxIi8+JiN4YTsJPHBhdGggZD0iTTEwLjUgOUwxMiA3LjV2LTZMMTAuNSAweiIgY2xhc3M9InN0MCIvPiYjeGE7CTxwYXRoIGQ9Ik0xOS41IDlMMTggNy41aC02TDEwLjUgOXoiIGNsYXNzPSJzdDEiLz4mI3hhOwk8cGF0aCBkPSJNMTIgMS41aDZ2NmgtNnoiIGNsYXNzPSJzdDMiLz4mI3hhOwk8cGF0aCBkPSJNMjEgMGwxLjUgMS41aDZMMzAgMHoiIGNsYXNzPSJzdDAiLz4mI3hhOwk8cGF0aCBkPSJNMzAgOVYwbC0xLjUgMS41djZ6IiBjbGFzcz0ic3QxIi8+JiN4YTsJPHBhdGggZD0iTTIxIDlsMS41LTEuNXYtNkwyMSAweiIgY2xhc3M9InN0MCIvPiYjeGE7CTxwYXRoIGQ9Ik0zMCA5bC0xLjUtMS41aC02TDIxIDl6IiBjbGFzcz0ic3QxIi8+JiN4YTsJPHBhdGggZD0iTTIyLjUgMS41aDZ2NmgtNnoiIGNsYXNzPSJzdDMiLz4mI3hhOwk8cGF0aCBkPSJNMCAxMmwxLjUgMS41aDZMOSAxMnoiIGNsYXNzPSJzdDAiLz4mI3hhOwk8cGF0aCBkPSJNOSAyMXYtOWwtMS41IDEuNXY2eiIgY2xhc3M9InN0MSIvPiYjeGE7CTxwYXRoIGQ9Ik0wIDIxbDEuNS0xLjV2LTZMMCAxMnoiIGNsYXNzPSJzdDAiLz4mI3hhOwk8cGF0aCBkPSJNOSAyMWwtMS41LTEuNWgtNkwwIDIxeiIgY2xhc3M9InN0MSIvPiYjeGE7CTxwYXRoIGQ9Ik0xLjUgMTMuNWg2djZoLTZ6IiBjbGFzcz0ic3QzIi8+JiN4YTsJPHBhdGggZD0iTTEwLjUgMTJsMS41IDEuNWg2bDEuNS0xLjV6IiBjbGFzcz0ic3QyIi8+JiN4YTsJPHBhdGggZD0iTTE5LjUgMjF2LTlMMTggMTMuNXY2eiIgY2xhc3M9InN0MSIvPiYjeGE7CTxwYXRoIGQ9Ik0xMC41IDIxbDEuNS0xLjV2LTZMMTAuNSAxMnoiIGNsYXNzPSJzdDIiLz4mI3hhOwk8cGF0aCBkPSJNMTkuNSAyMUwxOCAxOS41aC02TDEwLjUgMjF6IiBjbGFzcz0ic3QwIi8+JiN4YTsJPHBhdGggZD0iTTEyIDEzLjVoNnY2aC02em05LTEuNWwxLjUgMS41aDZMMzAgMTJ6IiBjbGFzcz0ic3QyIi8+JiN4YTsJPHBhdGggZD0iTTMwIDIxdi05bC0xLjUgMS41djZ6IiBjbGFzcz0ic3QxIi8+JiN4YTsJPHBhdGggZD0iTTIxIDIxbDEuNS0xLjV2LTZMMjEgMTJ6IiBjbGFzcz0ic3QyIi8+JiN4YTsJPHBhdGggZD0iTTMwIDIxbC0xLjUtMS41aC02TDIxIDIxeiIgY2xhc3M9InN0MCIvPiYjeGE7CTxwYXRoIGQ9Ik0yMi41IDEzLjVoNnY2aC02eiIgY2xhc3M9InN0MiIvPiYjeGE7PC9zdmc+;" vertex="1" parent="enr-6fXp8CIaaVfOY3aj-437">
          <mxGeometry x="380" y="60" width="111.43" height="78" as="geometry" />
        </mxCell>
        <mxCell id="enr-6fXp8CIaaVfOY3aj-492" value="" style="group" vertex="1" connectable="0" parent="enr-6fXp8CIaaVfOY3aj-437">
          <mxGeometry x="30" y="410" width="108" height="106" as="geometry" />
        </mxCell>
        <mxCell id="enr-6fXp8CIaaVfOY3aj-493" value="" style="sketch=0;outlineConnect=0;fontColor=#ffffff;fillColor=#e51400;strokeColor=#B20000;dashed=0;verticalLabelPosition=bottom;verticalAlign=top;align=center;html=1;fontSize=12;fontStyle=0;aspect=fixed;pointerEvents=1;shape=mxgraph.aws4.container_registry_image;" vertex="1" parent="enr-6fXp8CIaaVfOY3aj-492">
          <mxGeometry width="91.97058823529412" height="91.97058823529412" as="geometry" />
        </mxCell>
        <mxCell id="enr-6fXp8CIaaVfOY3aj-494" value="" style="sketch=0;outlineConnect=0;fontColor=#ffffff;fillColor=#008a00;strokeColor=#005700;dashed=0;verticalLabelPosition=bottom;verticalAlign=top;align=center;html=1;fontSize=12;fontStyle=0;aspect=fixed;pointerEvents=1;shape=mxgraph.aws4.container_registry_image;" vertex="1" parent="enr-6fXp8CIaaVfOY3aj-492">
          <mxGeometry x="4.764705882352941" y="4.676470588235294" width="91.97058823529412" height="91.97058823529412" as="geometry" />
        </mxCell>
        <mxCell id="enr-6fXp8CIaaVfOY3aj-495" value="" style="sketch=0;outlineConnect=0;fontColor=#ffffff;fillColor=#0050ef;strokeColor=#001DBC;dashed=0;verticalLabelPosition=bottom;verticalAlign=top;align=center;html=1;fontSize=12;fontStyle=0;aspect=fixed;pointerEvents=1;shape=mxgraph.aws4.container_registry_image;" vertex="1" parent="enr-6fXp8CIaaVfOY3aj-492">
          <mxGeometry x="9.529411764705882" y="9.352941176470589" width="91.97058823529412" height="91.97058823529412" as="geometry" />
        </mxCell>
        <mxCell id="enr-6fXp8CIaaVfOY3aj-498" value="" style="group" vertex="1" connectable="0" parent="enr-6fXp8CIaaVfOY3aj-437">
          <mxGeometry x="200" y="230" width="108" height="106" as="geometry" />
        </mxCell>
        <mxCell id="enr-6fXp8CIaaVfOY3aj-499" value="" style="sketch=0;outlineConnect=0;fontColor=#ffffff;fillColor=#e51400;strokeColor=#B20000;dashed=0;verticalLabelPosition=bottom;verticalAlign=top;align=center;html=1;fontSize=12;fontStyle=0;aspect=fixed;pointerEvents=1;shape=mxgraph.aws4.container_registry_image;" vertex="1" parent="enr-6fXp8CIaaVfOY3aj-498">
          <mxGeometry width="91.97058823529412" height="91.97058823529412" as="geometry" />
        </mxCell>
        <mxCell id="enr-6fXp8CIaaVfOY3aj-500" value="" style="sketch=0;outlineConnect=0;fontColor=#ffffff;fillColor=#008a00;strokeColor=#005700;dashed=0;verticalLabelPosition=bottom;verticalAlign=top;align=center;html=1;fontSize=12;fontStyle=0;aspect=fixed;pointerEvents=1;shape=mxgraph.aws4.container_registry_image;" vertex="1" parent="enr-6fXp8CIaaVfOY3aj-498">
          <mxGeometry x="4.764705882352941" y="4.676470588235294" width="91.97058823529412" height="91.97058823529412" as="geometry" />
        </mxCell>
        <mxCell id="enr-6fXp8CIaaVfOY3aj-501" value="" style="sketch=0;outlineConnect=0;fontColor=#000000;fillColor=#fa6800;strokeColor=#C73500;dashed=0;verticalLabelPosition=bottom;verticalAlign=top;align=center;html=1;fontSize=12;fontStyle=0;aspect=fixed;pointerEvents=1;shape=mxgraph.aws4.container_registry_image;" vertex="1" parent="enr-6fXp8CIaaVfOY3aj-498">
          <mxGeometry x="9.529411764705882" y="9.352941176470589" width="91.97058823529412" height="91.97058823529412" as="geometry" />
        </mxCell>
        <mxCell id="enr-6fXp8CIaaVfOY3aj-474" value="" style="image;sketch=0;aspect=fixed;html=1;points=[];align=center;fontSize=12;image=img/lib/mscae/SQL_Database_generic.svg;" vertex="1" parent="enr-6fXp8CIaaVfOY3aj-437">
          <mxGeometry x="370" y="500" width="118" height="155.26" as="geometry" />
        </mxCell>
        <mxCell id="enr-6fXp8CIaaVfOY3aj-485" value="" style="editableCssRules=.*;html=1;shape=image;verticalLabelPosition=bottom;labelBackgroundColor=#ffffff;verticalAlign=top;aspect=fixed;imageAspect=0;image=data:image/svg+xml,PHN2ZyB4bWxucz0iaHR0cDovL3d3dy53My5vcmcvMjAwMC9zdmciIHhtbG5zOnY9Imh0dHBzOi8vdmVjdGEuaW8vbmFubyIgd2lkdGg9IjIwIiBoZWlnaHQ9IjE4Ljc1OTk5ODMyMTUzMzIwMyIgdmlld0JveD0iMCAwIDIwIDE4Ljc1OTk5ODMyMTUzMzIwMyI+JiN4YTsJPHN0eWxlIHR5cGU9InRleHQvY3NzIj4mI3hhOwkuc3Qwe2ZpbGw6IzQyODVmNDt9JiN4YTsJLnN0MXtmaWxsOiM2NjlkZjY7fSYjeGE7CS5zdDJ7ZmlsbDojYWVjYmZhO30mI3hhOwk8L3N0eWxlPiYjeGE7CTxwYXRoIGNsYXNzPSJzdDEiIGQ9Ik0xMC42MiAxNi40NUw0LjMgMTAuMzFsLTEuMzYuNzcgNi41OSA2LjUyem01LjA3LTcuNjNsMS43OC0uMzgtNi45LTdMOS40OCAyLjZ6IiBmaWxsLXJ1bGU9ImV2ZW5vZGQiLz4mI3hhOwk8cGF0aCBjbGFzcz0ic3QwIiBkPSJNOS4zOCAyLjUxaDEuMjV2NUg5LjM4em0wIDkuMzdoMS4yNXY1SDkuMzh6Ii8+JiN4YTsJPGcgY2xhc3M9InN0MiI+JiN4YTsJCTxjaXJjbGUgY3g9IjEwIiBjeT0iMS44OCIgcj0iMS44OCIvPiYjeGE7CQk8Y2lyY2xlIGN4PSIxMCIgY3k9IjE2Ljg4IiByPSIxLjg4Ii8+JiN4YTsJPC9nPiYjeGE7CTxwYXRoIGNsYXNzPSJzdDEiIGQ9Ik0xOS4zNyAxMC42M0g0LjNMLjY2IDguNzZoMTUuMDd6IiBmaWxsLXJ1bGU9ImV2ZW5vZGQiLz4mI3hhOwk8ZyBjbGFzcz0ic3QyIj4mI3hhOwkJPGNpcmNsZSBjeD0iMi41IiBjeT0iOS42OSIgcj0iMi41Ii8+JiN4YTsJCTxjaXJjbGUgY3g9IjE3LjUiIGN5PSI5LjY5IiByPSIyLjUiLz4mI3hhOwk8L2c+JiN4YTs8L3N2Zz4=;" vertex="1" parent="enr-6fXp8CIaaVfOY3aj-437">
          <mxGeometry x="387.2199999999999" y="331.32" width="104.21" height="99" as="geometry" />
        </mxCell>
        <mxCell id="enr-6fXp8CIaaVfOY3aj-514" style="edgeStyle=orthogonalEdgeStyle;rounded=0;orthogonalLoop=1;jettySize=auto;html=1;" edge="1" parent="enr-6fXp8CIaaVfOY3aj-437" source="enr-6fXp8CIaaVfOY3aj-501" target="enr-6fXp8CIaaVfOY3aj-485">
          <mxGeometry relative="1" as="geometry" />
        </mxCell>
        <mxCell id="enr-6fXp8CIaaVfOY3aj-438" value="TENSORBOARD" style="image;aspect=fixed;perimeter=ellipsePerimeter;html=1;align=center;shadow=0;dashed=0;fontColor=#4277BB;labelBackgroundColor=default;fontSize=12;spacingTop=3;image=img/lib/ibm/infrastructure/dashboard.svg;imageBackground=#1e1a15;" vertex="1" parent="1">
          <mxGeometry x="1060" y="40" width="130" height="130" as="geometry" />
        </mxCell>
        <mxCell id="enr-6fXp8CIaaVfOY3aj-451" style="edgeStyle=orthogonalEdgeStyle;rounded=0;orthogonalLoop=1;jettySize=auto;html=1;exitX=0.379;exitY=1.003;exitDx=0;exitDy=0;exitPerimeter=0;" edge="1" parent="1" source="enr-6fXp8CIaaVfOY3aj-510" target="enr-6fXp8CIaaVfOY3aj-487">
          <mxGeometry relative="1" as="geometry">
            <mxPoint x="270" y="190" as="sourcePoint" />
            <mxPoint x="300" y="490" as="targetPoint" />
          </mxGeometry>
        </mxCell>
        <mxCell id="enr-6fXp8CIaaVfOY3aj-477" value="" style="image;sketch=0;aspect=fixed;html=1;points=[];align=center;fontSize=12;image=img/lib/mscae/Event_Grid_Topics.svg;" vertex="1" parent="1">
          <mxGeometry x="1170" y="980" width="140" height="140" as="geometry" />
        </mxCell>
        <mxCell id="enr-6fXp8CIaaVfOY3aj-478" value="" style="image;sketch=0;aspect=fixed;html=1;points=[];align=center;fontSize=12;image=img/lib/mscae/Virtual_Network.svg;" vertex="1" parent="1">
          <mxGeometry x="690" y="640" width="50" height="28.000000000000004" as="geometry" />
        </mxCell>
        <mxCell id="enr-6fXp8CIaaVfOY3aj-479" value="" style="editableCssRules=.*;html=1;shape=image;verticalLabelPosition=bottom;labelBackgroundColor=#ffffff;verticalAlign=top;aspect=fixed;imageAspect=0;image=data:image/svg+xml,PHN2ZyB4bWxucz0iaHR0cDovL3d3dy53My5vcmcvMjAwMC9zdmciIHhtbG5zOnY9Imh0dHBzOi8vdmVjdGEuaW8vbmFubyIgd2lkdGg9IjM3Ny42MDkwNzg2ODcyMTAwNiIgaGVpZ2h0PSIzMDYuMjk2NTE2MDQzNTQ3NzQiIHZpZXdCb3g9IjAuMDE5MDAwMDAxMjUxNjk3NTQgMC4yMzIwMDAwMDgyMjU0NDA5OCA5OS45MDkwMDQyMTE0MjU3OCA4MS4wNDEwMDAzNjYyMTA5NCI+JiN4YTs8c3R5bGUgdHlwZT0idGV4dC9jc3MiPiYjeGE7CS5zdDB7ZmlsbDojNjY5ZGY2O30mI3hhOwkuc3Qxe2ZpbGw6I2FlY2JmYTt9JiN4YTsJLnN0MntmaWxsOiM0Mjg1ZjQ7fSYjeGE7PC9zdHlsZT4mI3hhOwk8cGF0aCBjbGFzcz0ic3QwIiBkPSJNMjUuMTgzLjIzMkw3LjM1MyAzNy4zNjYuMDQ4IDM3LjMzbC0uMDI5IDYgMjkuNDkyLjE0NmMxLjA4NiA2LjE1IDYuNDk5IDEwLjg3NiAxMi45NDQgMTAuODc2IDcuMjE4IDAgMTMuMTQ0LTUuOTI3IDEzLjE0NC0xMy4xNDRzLTUuOTI3LTEzLjE0NS0xMy4xNDQtMTMuMTQ1Yy01LjkyNCAwLTEwLjk3NiAzLjk5My0xMi41OTcgOS40MTVsLTEyLjU0NC0uMDYyTDMwLjg0NSA5LjIzMmgzMC4xMjl2LTlIMjUuMTgzem0xNy4yNzEgMzQuODNhNi4wOSA2LjA5IDAgMCAxIDYuMTQ1IDYuMTQ1IDYuMDkgNi4wOSAwIDAgMS02LjE0NSA2LjE0NGMtMi42MTYgMC00LjgwOS0xLjU3My01LjcwNi0zLjg0bDMuMjE0LjAxNi4wMjktNi0yLjQ3My0uMDEyYzEuMTEyLTEuNDk2IDIuODk2LTIuNDUzIDQuOTM2LTIuNDUzek0xNy44ODIgNDUuNzExbC04LjA4NiAzLjk1MSAxNS40NDEgMzEuNjExaDM1LjczNnYtOUgzMC44NThMMTcuODgyIDQ1LjcxMXoiLz4mI3hhOwk8cGF0aCBjbGFzcz0ic3QxIiBkPSJNNjAuOTc0IDgxLjI3M2gzOC45NTRWNjAuOTIyaC05LjAwM3YxMS4zNTJINjAuOTc0em0wLTcyLjA0MWgyOS45NTF2MTEuNzU1aDkuMDAzVi4yMzJINjAuOTc0eiIvPiYjeGE7CTxwYXRoIGNsYXNzPSJzdDIiIGQ9Ik03NS43OTYgMjAuOTg3djguOTk5aDI0LjEzMnYtOC45OTl6TTYxLjExIDM1LjkyOHY5aDM4LjgxN3YtOXpNNzEuMjc0IDUxLjkxdjkuMDEyaDI4LjY1M1Y1MS45MXoiLz4mI3hhOzwvc3ZnPg==;" vertex="1" parent="1">
          <mxGeometry x="850" y="1010" width="150" height="120" as="geometry" />
        </mxCell>
        <mxCell id="enr-6fXp8CIaaVfOY3aj-482" value="&lt;font style=&quot;font-size: 20px;&quot;&gt;GPU&lt;/font&gt;" style="editableCssRules=.*;html=1;shape=image;verticalLabelPosition=bottom;labelBackgroundColor=none;verticalAlign=top;aspect=fixed;imageAspect=0;image=data:image/svg+xml,PHN2ZyB4bWxucz0iaHR0cDovL3d3dy53My5vcmcvMjAwMC9zdmciIHhtbG5zOnY9Imh0dHBzOi8vdmVjdGEuaW8vbmFubyIgd2lkdGg9IjIwIiBoZWlnaHQ9IjIwIiB2aWV3Qm94PSIwIDAgMjAgMjAiPiYjeGE7CTxzdHlsZSB0eXBlPSJ0ZXh0L2NzcyI+JiN4YTsJLnN0MHtmaWxsOiM0Mjg1ZjQ7fSYjeGE7CTwvc3R5bGU+JiN4YTsJPHBhdGggY2xhc3M9InN0MCIgZD0iTTEzLjMzIDB2Mi4zOGgtMi4xNlYwSDguODN2Mi4zOEg2LjY3VjBINC4yOXYyLjM4YTIgMiAwIDAgMC0xLjkxIDEuOTFIMHYyLjM4aDIuMzh2Mi4xNEgwdjIuMzhoMi4zOHYyLjE0SDB2Mi4zOGgyLjM4YTIgMiAwIDAgMCAxLjkxIDEuOTFWMjBoMi4zOHYtMi4zOGgyLjE2VjIwaDIuMzR2LTIuMzhoMi4xNlYyMGgyLjM4di0yLjM4YTIgMiAwIDAgMCAxLjkxLTEuOTFIMjB2LTIuMzhoLTIuMzh2LTIuMTRIMjBWOC44MWgtMi4zOFY2LjY3SDIwVjQuMjloLTIuMzhhMiAyIDAgMCAwLTEuOTEtMS45MVYwem0xLjUzIDE1LjI0SDUuMTRhLjM4LjM4IDAgMCAxLS4zOC0uMzhWNS4xNGEuMzguMzggMCAwIDEgLjM4LS4zOGg5LjcyYS4zOC4zOCAwIDAgMSAuMzguMzh2OS43MmEuMzguMzggMCAwIDEtLjM4LjM4em0tMi4wNy02LjEybC0zLjUgNC44NnYtMy42M0g3LjIybDMuNjEtNC44MXYzLjU4eiIvPiYjeGE7PC9zdmc+;" vertex="1" parent="1">
          <mxGeometry x="1420" y="50" width="160" height="160" as="geometry" />
        </mxCell>
        <mxCell id="enr-6fXp8CIaaVfOY3aj-484" value="" style="editableCssRules=.*;html=1;shape=image;verticalLabelPosition=bottom;labelBackgroundColor=#ffffff;verticalAlign=top;aspect=fixed;imageAspect=0;image=data:image/svg+xml,PHN2ZyB4bWxuczppbmtzY2FwZT0iaHR0cDovL3d3dy5pbmtzY2FwZS5vcmcvbmFtZXNwYWNlcy9pbmtzY2FwZSIgeG1sbnM6c29kaXBvZGk9Imh0dHA6Ly9zb2RpcG9kaS5zb3VyY2Vmb3JnZS5uZXQvRFREL3NvZGlwb2RpLTAuZHRkIiB4bWxucz0iaHR0cDovL3d3dy53My5vcmcvMjAwMC9zdmciIHhtbG5zOnN2Zz0iaHR0cDovL3d3dy53My5vcmcvMjAwMC9zdmciIHdpZHRoPSI5OS45OTczMDIyMDQ4OTI5NiIgaGVpZ2h0PSI5Ny44ODA4NTM5MDQyOTYzMyIgdmlld0JveD0iLTAuMDQ1Nzc2MzY3MTg3NSAxLjA4Nzc4ODU4MTg0ODE0NDUgOTkuOTk3Mjk5MTk0MzM1OTQgOTcuODgwODQ0MTE2MjEwOTQiIHZlcnNpb249IjEuMSIgaWQ9InN2ZzUiIGlua3NjYXBlOnZlcnNpb249IjEuMSAoYzY4ZTIyYzM4NywgMjAyMS0wNS0yMykiIHNvZGlwb2RpOmRvY25hbWU9ImNsb3VkX25hdC5zdmciPiYjeGE7ICA8c29kaXBvZGk6bmFtZWR2aWV3IGlkPSJuYW1lZHZpZXc3IiBwYWdlY29sb3I9IiNmZmZmZmYiIGJvcmRlcmNvbG9yPSIjNjY2NjY2IiBib3JkZXJvcGFjaXR5PSIxLjAiIGlua3NjYXBlOnBhZ2VzaGFkb3c9IjIiIGlua3NjYXBlOnBhZ2VvcGFjaXR5PSIwLjAiIGlua3NjYXBlOnBhZ2VjaGVja2VyYm9hcmQ9IjAiIGlua3NjYXBlOmRvY3VtZW50LXVuaXRzPSJtbSIgc2hvd2dyaWQ9ImZhbHNlIiBpbmtzY2FwZTp6b29tPSIwLjU3OTMzNzQ0IiBpbmtzY2FwZTpjeD0iLTQyLjI4OTY4OSIgaW5rc2NhcGU6Y3k9IjI1NC42MDExOSIgaW5rc2NhcGU6d2luZG93LXdpZHRoPSIxOTIwIiBpbmtzY2FwZTp3aW5kb3ctaGVpZ2h0PSIxMDE3IiBpbmtzY2FwZTp3aW5kb3cteD0iLTgiIGlua3NjYXBlOndpbmRvdy15PSItOCIgaW5rc2NhcGU6d2luZG93LW1heGltaXplZD0iMSIgaW5rc2NhcGU6Y3VycmVudC1sYXllcj0ibGF5ZXIxIiBmaXQtbWFyZ2luLXRvcD0iMCIgZml0LW1hcmdpbi1sZWZ0PSIwIiBmaXQtbWFyZ2luLXJpZ2h0PSIwIiBmaXQtbWFyZ2luLWJvdHRvbT0iMCIvPiYjeGE7ICA8ZGVmcyBpZD0iZGVmczIiLz4mI3hhOyAgPGcgaW5rc2NhcGU6bGFiZWw9IkxheWVyIDEiIGlua3NjYXBlOmdyb3VwbW9kZT0ibGF5ZXIiIGlkPSJsYXllcjEiIHRyYW5zZm9ybT0idHJhbnNsYXRlKDI1OC42MTk3NSwxNi42Njc3MTUpIj4mI3hhOyAgICA8cGF0aCBpZD0icGF0aDE3MzYyIiBzdHlsZT0ib3BhY2l0eToxO2ZpbGw6IzQyODVmNDtmaWxsLW9wYWNpdHk6MTtzdHJva2U6bm9uZTtzdHJva2Utd2lkdGg6MC45OTk5OTlweDtzdHJva2UtbGluZWNhcDpidXR0O3N0cm9rZS1saW5lam9pbjptaXRlcjtzdHJva2Utb3BhY2l0eToxIiBkPSJNIDE0MS40MTc5Nyw0LjExMTMyODEgMTI0LjQwMjM0LDI0LjM3NSBjIDU3Ljg5NTM3LDQ4LjYxNjQyNiA4My40MTQwNyw5Ni4wNjQ2NyA4My40MTQwNywxNjMuOTQzMzYgMCw3Mi4zMTIyOCAtMzYuMTA3MzEsMTI0LjgyOTc3IC04Mi4wMTk1MywxNjYuMDQ4ODMgbCAxNy42Nzk2OCwxOS42ODc1IGMgNDkuMjAyOTksLTQ0LjE3MzQyIDkwLjc5Njg4LC0xMDQuNDk4MzcgOTAuNzk2ODgsLTE4NS43MzYzMyAwLC03NC44ODE1MiAtMzEuMTU5NDEsLTEzMi4zOTkwMjIgLTkyLjg1NTQ3LC0xODQuMjA3MDMxOSB6IE0gOTYuNTU2NjQxLDc1Ljg4NDc2NiBWIDEwMi4zNDE4IEggMTY2LjQ4MzA1IEMgMTYyLjM5Mjc0LDk0LjU1NDQyIDE1OC40NTE0Myw4Ni44NDE1NDIgMTQ4LjAyMjMzLDc1Ljg4NDc2NiBaIE0gMzE3Ljc3OTMsMjAyLjMwNjY0IHYgMzIuMjkyOTcgbCA1OS45OTAyMywtNDUuNTE3NTggLTU5Ljk5MDIzLC00NS41MTc1OCB2IDMyLjI4NTE2IGggLTY0LjQ3NDYxIHYgMjYuNDU3MDMgeiBNIDUwLjA1ODU5NCwxNzUuODQ5NjEgdiAyNi40NTcwMyBIIDE4Ny4yODEyNSBjIDEuMTU3NDUsLTguMDQ3MzcgMS4yODIzMSwtMTYuNzgzMTUgMCwtMjYuNDU3MDMgeiBtIDQ3LjAzNzEwOSwxMDAuMDQ2ODcgdiAyNi40NTcwNCBoIDUwLjY4MjY3NyBjIDguMDE2NTcsLTguMDE0NjYgMTQuNDYxNjksLTE2LjgxNTA0IDE5LjIyMzU3LC0yNi40NTcwNCB6IiB0cmFuc2Zvcm09Im1hdHJpeCgwLjI2NDU4MzMzLDAsMCwwLjI2NDU4MzMzLC0yNTguNjE5NzUsLTE2LjY2NzcxNSkiIHNvZGlwb2RpOm5vZGV0eXBlcz0iY2NzY2NzY2NjY2NjY2NjY2NjY2NjY2NjY2NjY2NjIi8+JiN4YTsgICAgPHBhdGggaWQ9InBhdGgxNjI3MS03IiBzdHlsZT0iY29sb3I6IzAwMDAwMDtvcGFjaXR5OjE7ZmlsbDojNjY5ZGY2O3N0cm9rZS1saW5lam9pbjpyb3VuZDstaW5rc2NhcGUtc3Ryb2tlOm5vbmU7ZmlsbC1vcGFjaXR5OjEiIGQ9Im0gLTIzNy45NTQwOCw1MS45MDU2ODYgYyAtNC4zNDYzLDEwZS03IC03LjkyMzgyLDMuNTc3NTIxIC03LjkyMzgyLDcuOTIzODI4IDAsNC4zNDYzMDcgMy41Nzc1Miw3LjkyMzgyOCA3LjkyMzgyLDcuOTIzODI4IDQuMzQ2MzEsMCA3LjkyMzgzLC0zLjU3NzUyMSA3LjkyMzgzLC03LjkyMzgyOCAwLC00LjM0NjMwNyAtMy41Nzc1MiwtNy45MjM4MjcgLTcuOTIzODMsLTcuOTIzODI4IHogbSAwLDUgYyAxLjY0NDExLDAgMi45MjM4MywxLjI3OTcxOCAyLjkyMzgzLDIuOTIzODI4IDAsMS42NDQxMSAtMS4yNzk3MiwyLjkyMzgyOCAtMi45MjM4MywyLjkyMzgyOCAtMS42NDQxMSwwIC0yLjkyMzgyLC0xLjI3OTcxOCAtMi45MjM4MiwtMi45MjM4MjggMCwtMS42NDQxMSAxLjI3OTcxLC0yLjkyMzgyOCAyLjkyMzgyLC0yLjkyMzgyOCB6IG0gLTEyLjc4NzYxLC0zMS40ODg1OTMgYyAtNC4zNDYzLDEwZS03IC03LjkyMzgyLDMuNTc3NTIxIC03LjkyMzgyLDcuOTIzODI4IDAsNC4zNDYzMDcgMy41Nzc1Miw3LjkyMzgyOCA3LjkyMzgyLDcuOTIzODI4IDQuMzQ2MzEsMCA3LjkyMzgzLC0zLjU3NzUyMSA3LjkyMzgzLC03LjkyMzgyOCAwLC00LjM0NjMwNyAtMy41Nzc1MiwtNy45MjM4MjcgLTcuOTIzODMsLTcuOTIzODI4IHogbSAwLDUgYyAxLjY0NDExLDAgMi45MjM4MywxLjI3OTcxOCAyLjkyMzgzLDIuOTIzODI4IDAsMS42NDQxMSAtMS4yNzk3MiwyLjkyMzgyOCAtMi45MjM4MywyLjkyMzgyOCAtMS42NDQxMSwwIC0yLjkyMzgyLC0xLjI3OTcxOCAtMi45MjM4MiwtMi45MjM4MjggMCwtMS42NDQxMSAxLjI3OTcxLC0yLjkyMzgyOCAyLjkyMzgyLC0yLjkyMzgyOCB6IG0gMTIuNjE2NTIsLTMxLjQzMTQ5MjkgYyAtNC4zNDYzLDZlLTcgLTcuOTIzODIsMy41Nzc1MjA4IC03LjkyMzgyLDcuOTIzODI4MSAwLDQuMzQ2MzA2OCAzLjU3NzUyLDcuOTIzODI3OCA3LjkyMzgyLDcuOTIzODI3OCA0LjM0NjMxLDAgNy45MjM4MywtMy41Nzc1MjEgNy45MjM4MywtNy45MjM4Mjc4IDAsLTQuMzQ2MzA3MyAtMy41Nzc1MiwtNy45MjM4Mjc1IC03LjkyMzgzLC03LjkyMzgyODEgeiBtIDAsNSBjIDEuNjQ0MTEsMmUtNyAyLjkyMzgzLDEuMjc5NzE4NCAyLjkyMzgzLDIuOTIzODI4MSAwLDEuNjQ0MTA5NiAtMS4yNzk3MiwyLjkyMzgyNzkgLTIuOTIzODMsMi45MjM4Mjc5IC0xLjY0NDExLDAgLTIuOTIzODIsLTEuMjc5NzE4MyAtMi45MjM4MiwtMi45MjM4Mjc5IDAsLTEuNjQ0MTA5NyAxLjI3OTcxLC0yLjkyMzgyNzkgMi45MjM4MiwtMi45MjM4MjgxIHoiLz4mI3hhOyAgPC9nPiYjeGE7PC9zdmc+;" vertex="1" parent="1">
          <mxGeometry x="1430" y="990" width="120" height="120" as="geometry" />
        </mxCell>
        <mxCell id="enr-6fXp8CIaaVfOY3aj-486" value="" style="editableCssRules=.*;html=1;shape=image;verticalLabelPosition=bottom;labelBackgroundColor=#ffffff;verticalAlign=top;aspect=fixed;imageAspect=0;image=data:image/svg+xml,PHN2ZyB4bWxucz0iaHR0cDovL3d3dy53My5vcmcvMjAwMC9zdmciIHhtbG5zOnY9Imh0dHBzOi8vdmVjdGEuaW8vbmFubyIgd2lkdGg9IjM0Ni4zMDMyMTgzOTM3OTEiIGhlaWdodD0iMzc5LjE5NjAwODk5NjY3Mjk2IiB2aWV3Qm94PSIwIDAgOTEuNjI1OTk5NDUwNjgzNiAxMDAuMzI5MDAyMzgwMzcxMSI+JiN4YTs8c3R5bGUgdHlwZT0idGV4dC9jc3MiPiYjeGE7CS5zdDB7ZmlsbDojNDI4NWY0O30mI3hhOzwvc3R5bGU+JiN4YTsJPHBhdGggY2xhc3M9InN0MCIgZD0iTTQ3LjcyOSAxMDAuMzI5VjBsNDMuODk3IDI1LjAyNXYyMS41NjJsLTI2LjgtMTUuMzQxdjExLjk1bDEzLjIxMyA2Ljg3NnYxOS4xNzdsLTEzLjIxMy03LjcxN3YyOS4wNDZ6TTAgMjUuMDI1TDQzLjQ2MyAwdjEwMC4zMjlsLTE2Ljc1Ni05Ljc1MnYtNTkuMzNMMCA0Ni41ODd6Ii8+JiN4YTs8L3N2Zz4=;" vertex="1" parent="1">
          <mxGeometry x="1930" y="1000" width="90" height="100" as="geometry" />
        </mxCell>
        <mxCell id="enr-6fXp8CIaaVfOY3aj-491" value="" style="group" vertex="1" connectable="0" parent="1">
          <mxGeometry x="240" y="430" width="108" height="106" as="geometry" />
        </mxCell>
        <mxCell id="enr-6fXp8CIaaVfOY3aj-487" value="" style="sketch=0;outlineConnect=0;fontColor=#ffffff;fillColor=#e51400;strokeColor=#B20000;dashed=0;verticalLabelPosition=bottom;verticalAlign=top;align=center;html=1;fontSize=12;fontStyle=0;aspect=fixed;pointerEvents=1;shape=mxgraph.aws4.container_registry_image;" vertex="1" parent="enr-6fXp8CIaaVfOY3aj-491">
          <mxGeometry width="91.97058823529412" height="91.97058823529412" as="geometry" />
        </mxCell>
        <mxCell id="enr-6fXp8CIaaVfOY3aj-488" value="" style="sketch=0;outlineConnect=0;fontColor=#ffffff;fillColor=#008a00;strokeColor=#005700;dashed=0;verticalLabelPosition=bottom;verticalAlign=top;align=center;html=1;fontSize=12;fontStyle=0;aspect=fixed;pointerEvents=1;shape=mxgraph.aws4.container_registry_image;" vertex="1" parent="enr-6fXp8CIaaVfOY3aj-491">
          <mxGeometry x="4.764705882352941" y="4.676470588235294" width="91.97058823529412" height="91.97058823529412" as="geometry" />
        </mxCell>
        <mxCell id="enr-6fXp8CIaaVfOY3aj-489" value="" style="sketch=0;outlineConnect=0;fontColor=#ffffff;fillColor=#0050ef;strokeColor=#001DBC;dashed=0;verticalLabelPosition=bottom;verticalAlign=top;align=center;html=1;fontSize=12;fontStyle=0;aspect=fixed;pointerEvents=1;shape=mxgraph.aws4.container_registry_image;" vertex="1" parent="enr-6fXp8CIaaVfOY3aj-491">
          <mxGeometry x="9.529411764705882" y="9.352941176470589" width="91.97058823529412" height="91.97058823529412" as="geometry" />
        </mxCell>
        <mxCell id="enr-6fXp8CIaaVfOY3aj-490" value="" style="sketch=0;outlineConnect=0;fontColor=#000000;fillColor=#fa6800;strokeColor=#C73500;dashed=0;verticalLabelPosition=bottom;verticalAlign=top;align=center;html=1;fontSize=12;fontStyle=0;aspect=fixed;pointerEvents=1;shape=mxgraph.aws4.container_registry_image;" vertex="1" parent="enr-6fXp8CIaaVfOY3aj-491">
          <mxGeometry x="14.294117647058822" y="14.029411764705882" width="91.97058823529412" height="91.97058823529412" as="geometry" />
        </mxCell>
        <mxCell id="enr-6fXp8CIaaVfOY3aj-497" style="edgeStyle=orthogonalEdgeStyle;rounded=0;orthogonalLoop=1;jettySize=auto;html=1;" edge="1" parent="1" source="enr-6fXp8CIaaVfOY3aj-490">
          <mxGeometry relative="1" as="geometry">
            <mxPoint x="220.33333333333348" y="774.0294117647059" as="targetPoint" />
          </mxGeometry>
        </mxCell>
        <mxCell id="enr-6fXp8CIaaVfOY3aj-505" style="edgeStyle=orthogonalEdgeStyle;rounded=0;orthogonalLoop=1;jettySize=auto;html=1;" edge="1" parent="1" source="enr-6fXp8CIaaVfOY3aj-501" target="enr-6fXp8CIaaVfOY3aj-480">
          <mxGeometry relative="1" as="geometry" />
        </mxCell>
        <mxCell id="enr-6fXp8CIaaVfOY3aj-506" value="" style="image;sketch=0;aspect=fixed;html=1;points=[];align=center;fontSize=12;image=img/lib/mscae/Shared_Dashboard.svg;" vertex="1" parent="1">
          <mxGeometry x="-90" y="840" width="97.56" height="80" as="geometry" />
        </mxCell>
        <mxCell id="enr-6fXp8CIaaVfOY3aj-507" style="edgeStyle=orthogonalEdgeStyle;rounded=0;orthogonalLoop=1;jettySize=auto;html=1;entryX=1.022;entryY=0.463;entryDx=0;entryDy=0;entryPerimeter=0;" edge="1" parent="1" source="enr-6fXp8CIaaVfOY3aj-495" target="enr-6fXp8CIaaVfOY3aj-506">
          <mxGeometry relative="1" as="geometry" />
        </mxCell>
        <mxCell id="enr-6fXp8CIaaVfOY3aj-508" style="edgeStyle=orthogonalEdgeStyle;rounded=0;orthogonalLoop=1;jettySize=auto;html=1;exitX=0;exitY=0.5;exitDx=0;exitDy=0;entryX=0.475;entryY=1.004;entryDx=0;entryDy=0;entryPerimeter=0;" edge="1" parent="1" source="enr-6fXp8CIaaVfOY3aj-480" target="enr-6fXp8CIaaVfOY3aj-506">
          <mxGeometry relative="1" as="geometry">
            <Array as="points">
              <mxPoint x="800" y="800" />
              <mxPoint x="404" y="800" />
              <mxPoint x="404" y="940" />
              <mxPoint x="-44" y="940" />
            </Array>
          </mxGeometry>
        </mxCell>
        <mxCell id="enr-6fXp8CIaaVfOY3aj-510" value="" style="image;sketch=0;aspect=fixed;html=1;points=[];align=center;fontSize=12;image=img/lib/mscae/API_Management.svg;labelBackgroundColor=none;" vertex="1" parent="1">
          <mxGeometry x="200" y="75" width="130.95" height="110" as="geometry" />
        </mxCell>
        <mxCell id="enr-6fXp8CIaaVfOY3aj-512" style="edgeStyle=orthogonalEdgeStyle;rounded=0;orthogonalLoop=1;jettySize=auto;html=1;entryX=0;entryY=0.5;entryDx=0;entryDy=0;" edge="1" parent="1" source="enr-6fXp8CIaaVfOY3aj-511" target="enr-6fXp8CIaaVfOY3aj-483">
          <mxGeometry relative="1" as="geometry" />
        </mxCell>
        <mxCell id="enr-6fXp8CIaaVfOY3aj-511" value="" style="image;sketch=0;aspect=fixed;html=1;points=[];align=center;fontSize=12;image=img/lib/mscae/API_Management.svg;" vertex="1" parent="1">
          <mxGeometry x="390" y="75" width="130.95" height="110" as="geometry" />
        </mxCell>
        <mxCell id="enr-6fXp8CIaaVfOY3aj-513" style="edgeStyle=orthogonalEdgeStyle;rounded=0;orthogonalLoop=1;jettySize=auto;html=1;" edge="1" parent="1" source="enr-6fXp8CIaaVfOY3aj-490" target="enr-6fXp8CIaaVfOY3aj-499">
          <mxGeometry relative="1" as="geometry" />
        </mxCell>
      </root>
    </mxGraphModel>
  </diagram>
  <diagram id="l-O0gAQc8yJKEys29c4I" name="tabelas">
    <mxGraphModel dx="4014" dy="2920" grid="1" gridSize="10" guides="1" tooltips="1" connect="1" arrows="1" fold="1" page="1" pageScale="1" pageWidth="827" pageHeight="1169" math="0" shadow="0">
      <root>
        <mxCell id="0" />
        <mxCell id="1" parent="0" />
        <mxCell id="M3kGq-oU9IoCZyjLI7to-1" value="" style="shape=table;startSize=0;container=1;collapsible=0;childLayout=tableLayout;" vertex="1" parent="1">
          <mxGeometry x="-660" y="-1060" width="590" height="240" as="geometry" />
        </mxCell>
        <mxCell id="M3kGq-oU9IoCZyjLI7to-2" value="" style="shape=tableRow;horizontal=0;startSize=0;swimlaneHead=0;swimlaneBody=0;strokeColor=inherit;top=0;left=0;bottom=0;right=0;collapsible=0;dropTarget=0;fillColor=none;points=[[0,0.5],[1,0.5]];portConstraint=eastwest;" vertex="1" parent="M3kGq-oU9IoCZyjLI7to-1">
          <mxGeometry width="590" height="40" as="geometry" />
        </mxCell>
        <mxCell id="M3kGq-oU9IoCZyjLI7to-3" value="" style="shape=partialRectangle;html=1;whiteSpace=wrap;connectable=0;strokeColor=inherit;overflow=hidden;fillColor=none;top=0;left=0;bottom=0;right=0;pointerEvents=1;" vertex="1" parent="M3kGq-oU9IoCZyjLI7to-2">
          <mxGeometry width="197" height="40" as="geometry">
            <mxRectangle width="197" height="40" as="alternateBounds" />
          </mxGeometry>
        </mxCell>
        <mxCell id="M3kGq-oU9IoCZyjLI7to-4" value="Desenvolvimento" style="shape=partialRectangle;html=1;whiteSpace=wrap;connectable=0;strokeColor=inherit;overflow=hidden;fillColor=none;top=0;left=0;bottom=0;right=0;pointerEvents=1;" vertex="1" parent="M3kGq-oU9IoCZyjLI7to-2">
          <mxGeometry x="197" width="196" height="40" as="geometry">
            <mxRectangle width="196" height="40" as="alternateBounds" />
          </mxGeometry>
        </mxCell>
        <mxCell id="M3kGq-oU9IoCZyjLI7to-5" value="Produção" style="shape=partialRectangle;html=1;whiteSpace=wrap;connectable=0;strokeColor=inherit;overflow=hidden;fillColor=none;top=0;left=0;bottom=0;right=0;pointerEvents=1;" vertex="1" parent="M3kGq-oU9IoCZyjLI7to-2">
          <mxGeometry x="393" width="197" height="40" as="geometry">
            <mxRectangle width="197" height="40" as="alternateBounds" />
          </mxGeometry>
        </mxCell>
        <mxCell id="M3kGq-oU9IoCZyjLI7to-6" value="" style="shape=tableRow;horizontal=0;startSize=0;swimlaneHead=0;swimlaneBody=0;strokeColor=inherit;top=0;left=0;bottom=0;right=0;collapsible=0;dropTarget=0;fillColor=none;points=[[0,0.5],[1,0.5]];portConstraint=eastwest;" vertex="1" parent="M3kGq-oU9IoCZyjLI7to-1">
          <mxGeometry y="40" width="590" height="40" as="geometry" />
        </mxCell>
        <mxCell id="M3kGq-oU9IoCZyjLI7to-7" value="Requisitos" style="shape=partialRectangle;html=1;whiteSpace=wrap;connectable=0;strokeColor=inherit;overflow=hidden;fillColor=none;top=0;left=0;bottom=0;right=0;pointerEvents=1;" vertex="1" parent="M3kGq-oU9IoCZyjLI7to-6">
          <mxGeometry width="197" height="40" as="geometry">
            <mxRectangle width="197" height="40" as="alternateBounds" />
          </mxGeometry>
        </mxCell>
        <mxCell id="M3kGq-oU9IoCZyjLI7to-8" value="benchmark de performance" style="shape=partialRectangle;html=1;whiteSpace=wrap;connectable=0;strokeColor=inherit;overflow=hidden;fillColor=none;top=0;left=0;bottom=0;right=0;pointerEvents=1;" vertex="1" parent="M3kGq-oU9IoCZyjLI7to-6">
          <mxGeometry x="197" width="196" height="40" as="geometry">
            <mxRectangle width="196" height="40" as="alternateBounds" />
          </mxGeometry>
        </mxCell>
        <mxCell id="M3kGq-oU9IoCZyjLI7to-9" value="requisitos do negócio" style="shape=partialRectangle;html=1;whiteSpace=wrap;connectable=0;strokeColor=inherit;overflow=hidden;fillColor=none;top=0;left=0;bottom=0;right=0;pointerEvents=1;" vertex="1" parent="M3kGq-oU9IoCZyjLI7to-6">
          <mxGeometry x="393" width="197" height="40" as="geometry">
            <mxRectangle width="197" height="40" as="alternateBounds" />
          </mxGeometry>
        </mxCell>
        <mxCell id="M3kGq-oU9IoCZyjLI7to-10" value="" style="shape=tableRow;horizontal=0;startSize=0;swimlaneHead=0;swimlaneBody=0;strokeColor=inherit;top=0;left=0;bottom=0;right=0;collapsible=0;dropTarget=0;fillColor=none;points=[[0,0.5],[1,0.5]];portConstraint=eastwest;" vertex="1" parent="M3kGq-oU9IoCZyjLI7to-1">
          <mxGeometry y="80" width="590" height="40" as="geometry" />
        </mxCell>
        <mxCell id="M3kGq-oU9IoCZyjLI7to-11" value="Prioridade computacional" style="shape=partialRectangle;html=1;whiteSpace=wrap;connectable=0;strokeColor=inherit;overflow=hidden;fillColor=none;top=0;left=0;bottom=0;right=0;pointerEvents=1;" vertex="1" parent="M3kGq-oU9IoCZyjLI7to-10">
          <mxGeometry width="197" height="40" as="geometry">
            <mxRectangle width="197" height="40" as="alternateBounds" />
          </mxGeometry>
        </mxCell>
        <mxCell id="M3kGq-oU9IoCZyjLI7to-12" value="Treinamento Rápido" style="shape=partialRectangle;html=1;whiteSpace=wrap;connectable=0;strokeColor=inherit;overflow=hidden;fillColor=none;top=0;left=0;bottom=0;right=0;pointerEvents=1;" vertex="1" parent="M3kGq-oU9IoCZyjLI7to-10">
          <mxGeometry x="197" width="196" height="40" as="geometry">
            <mxRectangle width="196" height="40" as="alternateBounds" />
          </mxGeometry>
        </mxCell>
        <mxCell id="M3kGq-oU9IoCZyjLI7to-13" value="Inferência rápida , baixa Latência" style="shape=partialRectangle;html=1;whiteSpace=wrap;connectable=0;strokeColor=inherit;overflow=hidden;fillColor=none;top=0;left=0;bottom=0;right=0;pointerEvents=1;" vertex="1" parent="M3kGq-oU9IoCZyjLI7to-10">
          <mxGeometry x="393" width="197" height="40" as="geometry">
            <mxRectangle width="197" height="40" as="alternateBounds" />
          </mxGeometry>
        </mxCell>
        <mxCell id="M3kGq-oU9IoCZyjLI7to-14" value="" style="shape=tableRow;horizontal=0;startSize=0;swimlaneHead=0;swimlaneBody=0;strokeColor=inherit;top=0;left=0;bottom=0;right=0;collapsible=0;dropTarget=0;fillColor=none;points=[[0,0.5],[1,0.5]];portConstraint=eastwest;" vertex="1" parent="M3kGq-oU9IoCZyjLI7to-1">
          <mxGeometry y="120" width="590" height="40" as="geometry" />
        </mxCell>
        <mxCell id="M3kGq-oU9IoCZyjLI7to-15" value="Dados" style="shape=partialRectangle;html=1;whiteSpace=wrap;connectable=0;strokeColor=inherit;overflow=hidden;fillColor=none;top=0;left=0;bottom=0;right=0;pointerEvents=1;" vertex="1" parent="M3kGq-oU9IoCZyjLI7to-14">
          <mxGeometry width="197" height="40" as="geometry">
            <mxRectangle width="197" height="40" as="alternateBounds" />
          </mxGeometry>
        </mxCell>
        <mxCell id="M3kGq-oU9IoCZyjLI7to-16" value="Estáticos" style="shape=partialRectangle;html=1;whiteSpace=wrap;connectable=0;strokeColor=inherit;overflow=hidden;fillColor=none;top=0;left=0;bottom=0;right=0;pointerEvents=1;" vertex="1" parent="M3kGq-oU9IoCZyjLI7to-14">
          <mxGeometry x="197" width="196" height="40" as="geometry">
            <mxRectangle width="196" height="40" as="alternateBounds" />
          </mxGeometry>
        </mxCell>
        <mxCell id="M3kGq-oU9IoCZyjLI7to-17" value="Dinâmicos" style="shape=partialRectangle;html=1;whiteSpace=wrap;connectable=0;strokeColor=inherit;overflow=hidden;fillColor=none;top=0;left=0;bottom=0;right=0;pointerEvents=1;" vertex="1" parent="M3kGq-oU9IoCZyjLI7to-14">
          <mxGeometry x="393" width="197" height="40" as="geometry">
            <mxRectangle width="197" height="40" as="alternateBounds" />
          </mxGeometry>
        </mxCell>
        <mxCell id="M3kGq-oU9IoCZyjLI7to-18" value="" style="shape=tableRow;horizontal=0;startSize=0;swimlaneHead=0;swimlaneBody=0;strokeColor=inherit;top=0;left=0;bottom=0;right=0;collapsible=0;dropTarget=0;fillColor=none;points=[[0,0.5],[1,0.5]];portConstraint=eastwest;" vertex="1" parent="M3kGq-oU9IoCZyjLI7to-1">
          <mxGeometry y="160" width="590" height="40" as="geometry" />
        </mxCell>
        <mxCell id="M3kGq-oU9IoCZyjLI7to-19" value="Imparcialidade do sistema" style="shape=partialRectangle;html=1;whiteSpace=wrap;connectable=0;strokeColor=inherit;overflow=hidden;fillColor=none;top=0;left=0;bottom=0;right=0;pointerEvents=1;" vertex="1" parent="M3kGq-oU9IoCZyjLI7to-18">
          <mxGeometry width="197" height="40" as="geometry">
            <mxRectangle width="197" height="40" as="alternateBounds" />
          </mxGeometry>
        </mxCell>
        <mxCell id="M3kGq-oU9IoCZyjLI7to-20" value="Não é o foco" style="shape=partialRectangle;html=1;whiteSpace=wrap;connectable=0;strokeColor=inherit;overflow=hidden;fillColor=none;top=0;left=0;bottom=0;right=0;pointerEvents=1;" vertex="1" parent="M3kGq-oU9IoCZyjLI7to-18">
          <mxGeometry x="197" width="196" height="40" as="geometry">
            <mxRectangle width="196" height="40" as="alternateBounds" />
          </mxGeometry>
        </mxCell>
        <mxCell id="M3kGq-oU9IoCZyjLI7to-21" value="Deve ser Inferida" style="shape=partialRectangle;html=1;whiteSpace=wrap;connectable=0;strokeColor=inherit;overflow=hidden;fillColor=none;top=0;left=0;bottom=0;right=0;pointerEvents=1;" vertex="1" parent="M3kGq-oU9IoCZyjLI7to-18">
          <mxGeometry x="393" width="197" height="40" as="geometry">
            <mxRectangle width="197" height="40" as="alternateBounds" />
          </mxGeometry>
        </mxCell>
        <mxCell id="M3kGq-oU9IoCZyjLI7to-22" style="shape=tableRow;horizontal=0;startSize=0;swimlaneHead=0;swimlaneBody=0;strokeColor=inherit;top=0;left=0;bottom=0;right=0;collapsible=0;dropTarget=0;fillColor=none;points=[[0,0.5],[1,0.5]];portConstraint=eastwest;" vertex="1" parent="M3kGq-oU9IoCZyjLI7to-1">
          <mxGeometry y="200" width="590" height="40" as="geometry" />
        </mxCell>
        <mxCell id="M3kGq-oU9IoCZyjLI7to-23" value="Interpretabilidade dos Dados" style="shape=partialRectangle;html=1;whiteSpace=wrap;connectable=0;strokeColor=inherit;overflow=hidden;fillColor=none;top=0;left=0;bottom=0;right=0;pointerEvents=1;" vertex="1" parent="M3kGq-oU9IoCZyjLI7to-22">
          <mxGeometry width="197" height="40" as="geometry">
            <mxRectangle width="197" height="40" as="alternateBounds" />
          </mxGeometry>
        </mxCell>
        <mxCell id="M3kGq-oU9IoCZyjLI7to-24" value="Não é o foco" style="shape=partialRectangle;html=1;whiteSpace=wrap;connectable=0;strokeColor=inherit;overflow=hidden;fillColor=none;top=0;left=0;bottom=0;right=0;pointerEvents=1;" vertex="1" parent="M3kGq-oU9IoCZyjLI7to-22">
          <mxGeometry x="197" width="196" height="40" as="geometry">
            <mxRectangle width="196" height="40" as="alternateBounds" />
          </mxGeometry>
        </mxCell>
        <mxCell id="M3kGq-oU9IoCZyjLI7to-25" value="Dependente dos requisitos" style="shape=partialRectangle;html=1;whiteSpace=wrap;connectable=0;strokeColor=inherit;overflow=hidden;fillColor=none;top=0;left=0;bottom=0;right=0;pointerEvents=1;" vertex="1" parent="M3kGq-oU9IoCZyjLI7to-22">
          <mxGeometry x="393" width="197" height="40" as="geometry">
            <mxRectangle width="197" height="40" as="alternateBounds" />
          </mxGeometry>
        </mxCell>
        <mxCell id="M3kGq-oU9IoCZyjLI7to-26" value="" style="shape=table;startSize=0;container=1;collapsible=0;childLayout=tableLayout;" vertex="1" parent="1">
          <mxGeometry x="40" y="-1060" width="330" height="240" as="geometry" />
        </mxCell>
        <mxCell id="M3kGq-oU9IoCZyjLI7to-27" value="" style="shape=tableRow;horizontal=0;startSize=0;swimlaneHead=0;swimlaneBody=0;strokeColor=inherit;top=0;left=0;bottom=0;right=0;collapsible=0;dropTarget=0;fillColor=none;points=[[0,0.5],[1,0.5]];portConstraint=eastwest;" vertex="1" parent="M3kGq-oU9IoCZyjLI7to-26">
          <mxGeometry width="330" height="40" as="geometry" />
        </mxCell>
        <mxCell id="M3kGq-oU9IoCZyjLI7to-28" value="Stakeholder" style="shape=partialRectangle;html=1;whiteSpace=wrap;connectable=0;strokeColor=inherit;overflow=hidden;fillColor=none;top=0;left=0;bottom=0;right=0;pointerEvents=1;" vertex="1" parent="M3kGq-oU9IoCZyjLI7to-27">
          <mxGeometry width="129" height="40" as="geometry">
            <mxRectangle width="129" height="40" as="alternateBounds" />
          </mxGeometry>
        </mxCell>
        <mxCell id="M3kGq-oU9IoCZyjLI7to-29" value="Expectativa" style="shape=partialRectangle;html=1;whiteSpace=wrap;connectable=0;strokeColor=inherit;overflow=hidden;fillColor=none;top=0;left=0;bottom=0;right=0;pointerEvents=1;" vertex="1" parent="M3kGq-oU9IoCZyjLI7to-27">
          <mxGeometry x="129" width="201" height="40" as="geometry">
            <mxRectangle width="201" height="40" as="alternateBounds" />
          </mxGeometry>
        </mxCell>
        <mxCell id="M3kGq-oU9IoCZyjLI7to-30" value="" style="shape=tableRow;horizontal=0;startSize=0;swimlaneHead=0;swimlaneBody=0;strokeColor=inherit;top=0;left=0;bottom=0;right=0;collapsible=0;dropTarget=0;fillColor=none;points=[[0,0.5],[1,0.5]];portConstraint=eastwest;" vertex="1" parent="M3kGq-oU9IoCZyjLI7to-26">
          <mxGeometry y="40" width="330" height="40" as="geometry" />
        </mxCell>
        <mxCell id="M3kGq-oU9IoCZyjLI7to-31" value="Desenvolvimento" style="shape=partialRectangle;html=1;whiteSpace=wrap;connectable=0;strokeColor=inherit;overflow=hidden;fillColor=none;top=0;left=0;bottom=0;right=0;pointerEvents=1;" vertex="1" parent="M3kGq-oU9IoCZyjLI7to-30">
          <mxGeometry width="129" height="40" as="geometry">
            <mxRectangle width="129" height="40" as="alternateBounds" />
          </mxGeometry>
        </mxCell>
        <mxCell id="M3kGq-oU9IoCZyjLI7to-32" value="Mais Modelos, mais dados" style="shape=partialRectangle;html=1;whiteSpace=wrap;connectable=0;strokeColor=inherit;overflow=hidden;fillColor=none;top=0;left=0;bottom=0;right=0;pointerEvents=1;" vertex="1" parent="M3kGq-oU9IoCZyjLI7to-30">
          <mxGeometry x="129" width="201" height="40" as="geometry">
            <mxRectangle width="201" height="40" as="alternateBounds" />
          </mxGeometry>
        </mxCell>
        <mxCell id="M3kGq-oU9IoCZyjLI7to-33" value="" style="shape=tableRow;horizontal=0;startSize=0;swimlaneHead=0;swimlaneBody=0;strokeColor=inherit;top=0;left=0;bottom=0;right=0;collapsible=0;dropTarget=0;fillColor=none;points=[[0,0.5],[1,0.5]];portConstraint=eastwest;" vertex="1" parent="M3kGq-oU9IoCZyjLI7to-26">
          <mxGeometry y="80" width="330" height="40" as="geometry" />
        </mxCell>
        <mxCell id="M3kGq-oU9IoCZyjLI7to-34" value="Comercial" style="shape=partialRectangle;html=1;whiteSpace=wrap;connectable=0;strokeColor=inherit;overflow=hidden;fillColor=none;top=0;left=0;bottom=0;right=0;pointerEvents=1;" vertex="1" parent="M3kGq-oU9IoCZyjLI7to-33">
          <mxGeometry width="129" height="40" as="geometry">
            <mxRectangle width="129" height="40" as="alternateBounds" />
          </mxGeometry>
        </mxCell>
        <mxCell id="M3kGq-oU9IoCZyjLI7to-35" value="Maior Valor Agregado, apelo através de termos e números" style="shape=partialRectangle;html=1;whiteSpace=wrap;connectable=0;strokeColor=inherit;overflow=hidden;fillColor=none;top=0;left=0;bottom=0;right=0;pointerEvents=1;" vertex="1" parent="M3kGq-oU9IoCZyjLI7to-33">
          <mxGeometry x="129" width="201" height="40" as="geometry">
            <mxRectangle width="201" height="40" as="alternateBounds" />
          </mxGeometry>
        </mxCell>
        <mxCell id="M3kGq-oU9IoCZyjLI7to-36" value="" style="shape=tableRow;horizontal=0;startSize=0;swimlaneHead=0;swimlaneBody=0;strokeColor=inherit;top=0;left=0;bottom=0;right=0;collapsible=0;dropTarget=0;fillColor=none;points=[[0,0.5],[1,0.5]];portConstraint=eastwest;" vertex="1" parent="M3kGq-oU9IoCZyjLI7to-26">
          <mxGeometry y="120" width="330" height="40" as="geometry" />
        </mxCell>
        <mxCell id="M3kGq-oU9IoCZyjLI7to-37" value="Produto" style="shape=partialRectangle;html=1;whiteSpace=wrap;connectable=0;strokeColor=inherit;overflow=hidden;fillColor=none;top=0;left=0;bottom=0;right=0;pointerEvents=1;" vertex="1" parent="M3kGq-oU9IoCZyjLI7to-36">
          <mxGeometry width="129" height="40" as="geometry">
            <mxRectangle width="129" height="40" as="alternateBounds" />
          </mxGeometry>
        </mxCell>
        <mxCell id="M3kGq-oU9IoCZyjLI7to-38" value="baixa latência, experiencia do usuário" style="shape=partialRectangle;html=1;whiteSpace=wrap;connectable=0;strokeColor=inherit;overflow=hidden;fillColor=none;top=0;left=0;bottom=0;right=0;pointerEvents=1;" vertex="1" parent="M3kGq-oU9IoCZyjLI7to-36">
          <mxGeometry x="129" width="201" height="40" as="geometry">
            <mxRectangle width="201" height="40" as="alternateBounds" />
          </mxGeometry>
        </mxCell>
        <mxCell id="M3kGq-oU9IoCZyjLI7to-39" value="" style="shape=tableRow;horizontal=0;startSize=0;swimlaneHead=0;swimlaneBody=0;strokeColor=inherit;top=0;left=0;bottom=0;right=0;collapsible=0;dropTarget=0;fillColor=none;points=[[0,0.5],[1,0.5]];portConstraint=eastwest;" vertex="1" parent="M3kGq-oU9IoCZyjLI7to-26">
          <mxGeometry y="160" width="330" height="40" as="geometry" />
        </mxCell>
        <mxCell id="M3kGq-oU9IoCZyjLI7to-40" value="Manutenção" style="shape=partialRectangle;html=1;whiteSpace=wrap;connectable=0;strokeColor=inherit;overflow=hidden;fillColor=none;top=0;left=0;bottom=0;right=0;pointerEvents=1;" vertex="1" parent="M3kGq-oU9IoCZyjLI7to-39">
          <mxGeometry width="129" height="40" as="geometry">
            <mxRectangle width="129" height="40" as="alternateBounds" />
          </mxGeometry>
        </mxCell>
        <mxCell id="M3kGq-oU9IoCZyjLI7to-41" value="automação dos processos e robustez" style="shape=partialRectangle;html=1;whiteSpace=wrap;connectable=0;strokeColor=inherit;overflow=hidden;fillColor=none;top=0;left=0;bottom=0;right=0;pointerEvents=1;" vertex="1" parent="M3kGq-oU9IoCZyjLI7to-39">
          <mxGeometry x="129" width="201" height="40" as="geometry">
            <mxRectangle width="201" height="40" as="alternateBounds" />
          </mxGeometry>
        </mxCell>
        <mxCell id="M3kGq-oU9IoCZyjLI7to-42" value="" style="shape=tableRow;horizontal=0;startSize=0;swimlaneHead=0;swimlaneBody=0;strokeColor=inherit;top=0;left=0;bottom=0;right=0;collapsible=0;dropTarget=0;fillColor=none;points=[[0,0.5],[1,0.5]];portConstraint=eastwest;" vertex="1" parent="M3kGq-oU9IoCZyjLI7to-26">
          <mxGeometry y="200" width="330" height="40" as="geometry" />
        </mxCell>
        <mxCell id="M3kGq-oU9IoCZyjLI7to-43" value="Gestão" style="shape=partialRectangle;html=1;whiteSpace=wrap;connectable=0;strokeColor=inherit;overflow=hidden;fillColor=none;top=0;left=0;bottom=0;right=0;pointerEvents=1;" vertex="1" parent="M3kGq-oU9IoCZyjLI7to-42">
          <mxGeometry width="129" height="40" as="geometry">
            <mxRectangle width="129" height="40" as="alternateBounds" />
          </mxGeometry>
        </mxCell>
        <mxCell id="M3kGq-oU9IoCZyjLI7to-44" value="lucro" style="shape=partialRectangle;html=1;whiteSpace=wrap;connectable=0;strokeColor=inherit;overflow=hidden;fillColor=none;top=0;left=0;bottom=0;right=0;pointerEvents=1;" vertex="1" parent="M3kGq-oU9IoCZyjLI7to-42">
          <mxGeometry x="129" width="201" height="40" as="geometry">
            <mxRectangle width="201" height="40" as="alternateBounds" />
          </mxGeometry>
        </mxCell>
      </root>
    </mxGraphModel>
  </diagram>
</mxfile>
